<svg xmlns="http://www.w3.org/2000/svg" width="178.399" height="39.723" viewBox="0 0 178.399 39.723">
  <g id="Footer_Socials" data-name="Footer Socials" transform="translate(-1296 -10291)">
    <path id="Facebook" d="M93.462,39.723v-18.1h6.179l.883-7.062H93.462V10.151c0-1.986.662-3.531,3.531-3.531h3.752V.221C99.862.221,97.655,0,95.227,0c-5.3,0-9.048,3.31-9.048,9.269v5.3H80v7.062h6.179v18.1Z" transform="translate(1373.655 10291)" fill="#fff" fill-rule="evenodd"/>
    <path id="Twitter" d="M52.693,39.636c17.529,0,27.067-14.436,27.067-27.067V11.28a20.954,20.954,0,0,0,4.64-4.9,21.4,21.4,0,0,1-5.413,1.547,10.029,10.029,0,0,0,4.125-5.156,23.645,23.645,0,0,1-5.929,2.32A9.206,9.206,0,0,0,70.223,2a9.685,9.685,0,0,0-9.538,9.538,5.025,5.025,0,0,0,.258,2.062A26.652,26.652,0,0,1,41.351,3.547a9.872,9.872,0,0,0-1.289,4.9,10.242,10.242,0,0,0,4.124,7.991A8.69,8.69,0,0,1,39.8,15.147h0a9.421,9.421,0,0,0,7.733,9.28,7.947,7.947,0,0,1-2.578.258,4.387,4.387,0,0,1-1.8-.258,9.766,9.766,0,0,0,9.022,6.7A19.463,19.463,0,0,1,40.32,35.254,7.137,7.137,0,0,1,38,35a24.331,24.331,0,0,0,14.694,4.64" transform="translate(1332.445 10290.044)" fill="#fff" fill-rule="evenodd"/>
    <path id="Instagram" d="M18.818,3.345a57.7,57.7,0,0,1,7.527.209,9.7,9.7,0,0,1,3.555.627,7.343,7.343,0,0,1,3.555,3.555,9.7,9.7,0,0,1,.627,3.555c0,1.882.209,2.509.209,7.527a57.7,57.7,0,0,1-.209,7.527,9.7,9.7,0,0,1-.627,3.555A7.343,7.343,0,0,1,29.9,33.454a9.7,9.7,0,0,1-3.555.627c-1.882,0-2.509.209-7.527.209a57.7,57.7,0,0,1-7.527-.209,9.7,9.7,0,0,1-3.555-.627A7.343,7.343,0,0,1,4.182,29.9a9.7,9.7,0,0,1-.627-3.555c0-1.882-.209-2.509-.209-7.527a57.7,57.7,0,0,1,.209-7.527,9.7,9.7,0,0,1,.627-3.555A7.51,7.51,0,0,1,5.645,5.645,3.535,3.535,0,0,1,7.736,4.182a9.7,9.7,0,0,1,3.555-.627,57.7,57.7,0,0,1,7.527-.209m0-3.345a61.78,61.78,0,0,0-7.736.209,12.908,12.908,0,0,0-4.6.836A8.185,8.185,0,0,0,3.136,3.136,8.185,8.185,0,0,0,1.045,6.482a9.527,9.527,0,0,0-.836,4.6A61.78,61.78,0,0,0,0,18.818a61.78,61.78,0,0,0,.209,7.736,12.908,12.908,0,0,0,.836,4.6A8.185,8.185,0,0,0,3.136,34.5,8.185,8.185,0,0,0,6.482,36.59a12.908,12.908,0,0,0,4.6.836,61.78,61.78,0,0,0,7.736.209,61.78,61.78,0,0,0,7.736-.209,12.908,12.908,0,0,0,4.6-.836,8.772,8.772,0,0,0,5.436-5.436,12.908,12.908,0,0,0,.836-4.6c0-2.091.209-2.718.209-7.736a61.78,61.78,0,0,0-.209-7.736,12.908,12.908,0,0,0-.836-4.6A8.185,8.185,0,0,0,34.5,3.136a8.185,8.185,0,0,0-3.345-2.091,12.908,12.908,0,0,0-4.6-.836A61.78,61.78,0,0,0,18.818,0m0,9.2A9.463,9.463,0,0,0,9.2,18.818,9.618,9.618,0,1,0,18.818,9.2m0,15.891a6.161,6.161,0,0,1-6.273-6.273,6.161,6.161,0,0,1,6.273-6.273,6.161,6.161,0,0,1,6.273,6.273,6.161,6.161,0,0,1-6.273,6.273M28.854,6.482a2.3,2.3,0,1,0,2.3,2.3,2.32,2.32,0,0,0-2.3-2.3" transform="translate(1296 10292.044)" fill="#fff" fill-rule="evenodd"/>
  </g>
</svg>
