<svg id="Gada_Logo_White" data-name="Gada Logo White" xmlns="http://www.w3.org/2000/svg" width="44.279" height="61.612" viewBox="0 0 44.279 61.612">
  <path id="Path_4056" data-name="Path 4056" d="M2.243,922.1a5.511,5.511,0,0,1-.906-1.909A12.205,12.205,0,0,0,1,919.007v-.057a2.024,2.024,0,0,0,0-.741v-.171c.091-.028.051-.108.063-.171A6.2,6.2,0,0,1,2.356,914.9c.308-.006.427.137.4.467a.1.1,0,0,1-.057.063.322.322,0,0,0-.268.473,1.6,1.6,0,0,1,.068.633,9.476,9.476,0,0,0,.023,1.5.443.443,0,0,1-.023.194,1.414,1.414,0,0,0,.154,1.208c.074.108.04.188-.1.234-.108.034-.177.524-.1.6.04.04.091.017.137.011a.164.164,0,0,1,.205.148.152.152,0,0,1-.125.194c-.211.017-.182.165-.211.3a6.138,6.138,0,0,0-.028.792C2.431,921.885,2.431,922.039,2.243,922.1Z" transform="translate(-1 -862.866)" fill="#fff"/>
  <path id="Path_4057" data-name="Path 4057" d="M227.469,2h.4c.114.063.234.017.353.028a.77.77,0,0,1,.228.017,1.961,1.961,0,0,1,.1.94c.034.735-.091,1.465-.086,2.2a3.175,3.175,0,0,1-.091.838.892.892,0,0,0,.04.6.439.439,0,0,1,.011.085,6.422,6.422,0,0,1-.507,1.009c-.16.331-.353.65-.524.975-.051.1-.08.222-.228.228-.137-.04-.16-.148-.142-.274a2.147,2.147,0,0,1,.08-.331,3.107,3.107,0,0,0,.125-1.083c-.034-.365.051-.752.046-1.129-.006-.4.046-.8.046-1.2a7.516,7.516,0,0,1,.12-1.379.3.3,0,0,0,.006-.222A1.766,1.766,0,0,1,227.469,2Z" transform="translate(-214.132 -2)" fill="#fff"/>
  <path id="Path_4058" data-name="Path 4058" d="M213.39,2c-.023.325-.046.644-.068.969-.006.046-.04.12-.023.131.353.291-.011.621.057.918.091.393-.205.775-.006,1.163a.1.1,0,0,1,.006.057c-.143.564-.011,1.157-.12,1.71-.063.308.131.57-.006.866a5.1,5.1,0,0,0-.228.844.187.187,0,0,0,.1.239c.04.068,0,.131-.023.194-.137.291-.331.559-.45.855-.08.16-.177.313-.268.467-.04.068-.068.2-.205.12-.16-.245-.023-.484.029-.718.085-.388.114-.787.194-1.174A4.864,4.864,0,0,1,212.506,8a2.751,2.751,0,0,0,.023-1.18,4.409,4.409,0,0,1,.131-1.032.52.52,0,0,0-.017-.382.367.367,0,0,1-.028-.194,12.375,12.375,0,0,1,.074-1.778,6.757,6.757,0,0,0-.091-1.265L212.939,2Z" transform="translate(-200.053 -2)" fill="#fff"/>
  <path id="Path_4059" data-name="Path 4059" d="M413,1080.51a.192.192,0,0,1,.006-.057c.262-.16.547-.063.821-.08.068,0,.137-.006.205,0,.12-.006.245,0,.365,0,.239-.011.479-.006.724-.006a.336.336,0,0,1,.279.091.157.157,0,0,0-.006.051Z" transform="translate(-389.518 -1018.898)" fill="#fff"/>
  <path id="Path_4060" data-name="Path 4060" d="M1,973a1.008,1.008,0,0,1,0,.741Z" transform="translate(-1 -917.657)" fill="#fff"/>
  <path id="Path_4061" data-name="Path 4061" d="M253.116,2v.046a.26.26,0,0,1-.325.04A.054.054,0,0,1,252.774,2Z" transform="translate(-238.411 -2)" fill="#fff"/>
  <path id="Path_4062" data-name="Path 4062" d="M242.348,2.051C242.234,2.046,242.1,2.1,242,2h.342q.026.017.017.034C242.359,2.046,242.353,2.051,242.348,2.051Z" transform="translate(-228.264 -2)" fill="#fff"/>
  <path id="Path_4063" data-name="Path 4063" d="M248.006,2.051A.157.157,0,0,1,248,2h.285v.046a.051.051,0,0,1-.063.023Z" transform="translate(-233.922 -2)" fill="#fff"/>
  <path id="Path_4064" data-name="Path 4064" d="M521.24,470.772a2.413,2.413,0,0,1-1.944.809,7.426,7.426,0,0,1-1.328-.085,1.057,1.057,0,0,1,.336-.735c.023-.034.108-.04.1-.085-.063-.245.1-.427.188-.61a12.386,12.386,0,0,0,.536-1.231,2.39,2.39,0,0,1,.433-.752.254.254,0,0,0,.046-.268.35.35,0,0,1,.034-.3c.393-.661.638-1.4,1.032-2.058a19.092,19.092,0,0,0,.929-1.8c.034-.08.142-.171-.068-.2-.108-.011-.086-.16-.051-.245a3.828,3.828,0,0,1,.4-.878c.057-.08.12-.16.085-.256a.622.622,0,0,1,.137-.559c.268-.4.41-.872.644-1.3.3-.559.627-1.106.895-1.681s.581-1.129.844-1.71c.205-.445.462-.872.7-1.305a.266.266,0,0,1,.148-.125,23.742,23.742,0,0,1,1.322,2.9,1.056,1.056,0,0,1,.04.194.447.447,0,0,1-.046.382c-.5.889-.946,1.818-1.425,2.719a5.051,5.051,0,0,0-.627,1.482,4.483,4.483,0,0,1-.7,1.545,5.1,5.1,0,0,0-.308.673c-.291.616-.707,1.168-.986,1.8a11.363,11.363,0,0,1-.7,1.4c-.023.034-.051.074-.04.1.182.422-.251.61-.359.918-.034.1-.1.188-.08.313.029.154-.086.268-.142.393C521.218,470.4,521.069,470.572,521.24,470.772Z" transform="translate(-488.502 -429.558)" fill="#fff"/>
  <path id="Path_4065" data-name="Path 4065" d="M537.755,888.1a5.344,5.344,0,0,1,2.365,3.249,5.68,5.68,0,0,1-2.291,6.275,1.388,1.388,0,0,1-.125.068c-.171-.063-.171-.2-.165-.348.034-.524.04-1.049.046-1.573a5.221,5.221,0,0,1,.051-1.265c.034-.125-.034-.239-.046-.365a3.6,3.6,0,0,0-.023-2.5,2.069,2.069,0,0,0-.034-.838,1.356,1.356,0,0,1-.017-.5,3.053,3.053,0,0,0,.017-1.043,5.342,5.342,0,0,1,.006-.906A.274.274,0,0,1,537.755,888.1Z" transform="translate(-506.921 -837.596)" fill="#fff"/>
  <path id="Path_4066" data-name="Path 4066" d="M147.332,27.883a8.556,8.556,0,0,1,.576-1.083.463.463,0,0,1,.245.559,2.365,2.365,0,0,0,.029.98,1.092,1.092,0,0,1-.034.507,5.345,5.345,0,0,0-.04.735c-.074.667.182,1.339-.1,2.006a7.93,7.93,0,0,0-.205.787.094.094,0,0,0-.011.057,9.747,9.747,0,0,1-.365,1.858.416.416,0,0,0,.011.222.623.623,0,0,1-.051.65,1.314,1.314,0,0,0-.16.8,2.012,2.012,0,0,1-.16.764,3.287,3.287,0,0,0-.171,1.641.46.46,0,0,1,0,.177,3.388,3.388,0,0,1-.234.6,4.215,4.215,0,0,0-.3,1.117,3.745,3.745,0,0,0,.239,1.8,1.177,1.177,0,0,1,.091.61.24.24,0,0,0,.029.165c.268.547.359,1.151.581,1.71a3.824,3.824,0,0,0,.57,1.277,4.229,4.229,0,0,1,.456.94c.04.08.04.194.165.205a.134.134,0,0,1,.063.063,1.121,1.121,0,0,1,.04.365c.057.462.125.918.16,1.379-.023.182-.143.211-.291.171a.838.838,0,0,1-.667-.781,1.28,1.28,0,0,0-.182-.524,9.9,9.9,0,0,1-.61-1.009,6.686,6.686,0,0,1-.427-1.111,1.019,1.019,0,0,0-.12-.342.94.94,0,0,1-.177-.587,1.429,1.429,0,0,0-.148-.456,1.964,1.964,0,0,1-.154-.541c0-.085-.023-.2-.125-.194s-.085.131-.1.205c-.034.228-.011.456-.023.678a.25.25,0,0,1-.074.205,6.1,6.1,0,0,1-.45-.98,8.65,8.65,0,0,0,.057-1.015c.023-.279.2-.507.188-.792a3.092,3.092,0,0,0,.006-.65.158.158,0,0,1,.006-.114,6.432,6.432,0,0,0,.3-1.887,1.687,1.687,0,0,1,.114-.41,5.19,5.19,0,0,0,.142-1.51.278.278,0,0,1,.023-.137,2.751,2.751,0,0,0,.285-1.4c.017-.194.148-.348.171-.541.051-.5.194-.98.205-1.482a8.892,8.892,0,0,1,.228-1.026,7.515,7.515,0,0,0,.194-1,.7.7,0,0,1,.074-.3,1.632,1.632,0,0,0,.091-1.151,3.928,3.928,0,0,1-.017-1.157A7.342,7.342,0,0,1,147.332,27.883Z" transform="translate(-136.981 -25.387)" fill="#fff"/>
  <path id="Path_4067" data-name="Path 4067" d="M460.028,456.529a7.945,7.945,0,0,1-1.328-.051c.006-.006.011-.023.017-.023.4-.017.541-.319.707-.627.325-.6.6-1.225.912-1.83.228-.439.485-.861.7-1.3q.667-1.351,1.362-2.684c.8-1.539,1.567-3.095,2.377-4.634.587-1.106,1.117-2.24,1.716-3.334.376-.69.7-1.408,1.083-2.1a.792.792,0,0,1,.177-.257c.1-.08.188-.1.251.046a5.607,5.607,0,0,1-.211,1.374,15.218,15.218,0,0,1-.5,1.721c-.057.171-.131.342-.194.513-.017.051-.046.1-.063.148s-.046.125-.068.188c-.16.371-.3.747-.49,1.106-.023.046-.051.091-.074.137-.074.12-.1.262-.165.388-.057.1-.1.2-.165.3a1.438,1.438,0,0,0-.074.125,3.677,3.677,0,0,0-.165.336c-.08.148-.148.3-.228.45-.023.034-.04.068-.063.1-.986,1.818-1.978,3.625-2.958,5.443-.764,1.419-1.556,2.821-2.314,4.24A.814.814,0,0,1,460.028,456.529Z" transform="translate(-432.613 -414.688)" fill="#fff"/>
  <path id="Path_4068" data-name="Path 4068" d="M687.542,890.241a9.717,9.717,0,0,1,1.413-.034c.342-.011.331.006.188-.3-.239-.5-.456-1-.678-1.5a.234.234,0,0,0,.028-.108,10.41,10.41,0,0,1-.017-2.229c.011-.467-.046-.94-.04-1.413a3.808,3.808,0,0,1,.063-.986c.046-.154-.046-.3-.051-.45s-.046-.359.228-.342c.319.581.53,1.208.809,1.812q1.393,3.018,2.793,6.03c.142.3.142.3-.2.3h-4.81a.194.194,0,0,1-.057-.006c-.011-.006-.011-.029-.011-.04a.448.448,0,0,1,.348-.086c.285-.005.564,0,.849,0,.2,0,.325-.074.336-.291s-.131-.285-.331-.279c-.177.006-.359.006-.536,0C687.747,890.321,687.627,890.332,687.542,890.241Z" transform="translate(-648.09 -832.676)" fill="#fff"/>
  <path id="Path_4069" data-name="Path 4069" d="M343.275,114.387c-.462-1-.929-2.006-1.385-3.015a7.059,7.059,0,0,1-.49-1.072l2.616.1c.832.034,1.664.08,2.5.114a6.788,6.788,0,0,1,2.16.388c.023.125-.085.16-.159.205-.553.365-1.1.735-1.653,1.1-1.06.7-2.109,1.413-3.18,2.086C343.56,114.375,343.44,114.512,343.275,114.387Z" transform="translate(-321.999 -104.127)" fill="#fff"/>
  <path id="Path_4070" data-name="Path 4070" d="M503.366,443.169a.116.116,0,0,1,.057-.114,7.4,7.4,0,0,0,.445-.735.589.589,0,0,0,.068-.4c0-.063-.011-.131.057-.171.114.011.085-.051.057-.114a2.009,2.009,0,0,1,.171-.513c.422-.051.5-.4.576-.712a4.135,4.135,0,0,1,.239-.752,6.571,6.571,0,0,1,.655-1.351c.125-.154.108-.393.3-.5a9.538,9.538,0,0,1,.462,1.014c-.445.764-.8,1.573-1.214,2.354a23.3,23.3,0,0,1-1.208,2.263,6.1,6.1,0,0,0-.524,1.123,2.393,2.393,0,0,1-.245.445c-.1.154-.211.3-.085.49a.149.149,0,0,1-.029.188c-.285.245-.308.616-.473.923-.034.068-.091.154-.034.211.08.08.142-.051.245-.068a4.035,4.035,0,0,1-.4.969c-.285.644-.684,1.231-.992,1.869a7.619,7.619,0,0,1-.667,1.328c-.068.1-.137.205-.006.325a.136.136,0,0,1-.023.205c-.285.205-.268.593-.53.832-.114.108-.086.388-.16.581-.017.051-.006.137-.04.16-.279.182-.319.5-.433.769-.085.2-.085.4-.279.576a.882.882,0,0,0-.274.536,7.6,7.6,0,0,1-1.083-.057.193.193,0,0,1-.006-.262,5.4,5.4,0,0,0,.445-.889c.342-.718.724-1.413,1.089-2.115.006-.006.006-.017.017-.023.2-.125-.125-.428.16-.507.234-.068.274-.274.37-.439a1.468,1.468,0,0,0,.188-.536.836.836,0,0,1,.257-.524.237.237,0,0,0,.1-.165c-.023-.519.325-.9.513-1.334a7.288,7.288,0,0,1,.393-.792.427.427,0,0,0,.04-.325c-.063-.291.011-.382.319-.445.16-.034.165-.182.137-.3a.526.526,0,0,1,.125-.479,2.472,2.472,0,0,0,.359-.9l.057-.057a.962.962,0,0,0,.228-.456.613.613,0,0,1,.171-.342.107.107,0,0,0,.057-.114c.057-.1.08-.211.171-.285A.675.675,0,0,0,503.366,443.169Z" transform="translate(-469.625 -412.961)" fill="#fff"/>
  <path id="Path_4071" data-name="Path 4071" d="M132.526,45.8c.074.034.063.091.063.165-.028.462-.074.923-.063,1.385a1.527,1.527,0,0,0,.1.866.763.763,0,0,1-.034.6,4.917,4.917,0,0,0-.279,1.168c-.074.5-.308.963-.336,1.47a7.9,7.9,0,0,1-.239,1.556c-.1.353-.1.712-.222,1.06-.046.137.086.279-.017.445-.063.091-.085.228-.154.325s-.137.188-.029.3c.057.063.017.12-.006.182a.38.38,0,0,0-.051.217,2.577,2.577,0,0,1-.222,1.339.147.147,0,0,0-.006.085c.074.473-.177.923-.114,1.4a.1.1,0,0,1-.006.057c-.245.45-.08.969-.205,1.419a7.529,7.529,0,0,0-.2,1c-.028.2.1.416-.1.587-.3-.667-.6-1.328-.906-1.995a.925.925,0,0,0,.114-.576,1.938,1.938,0,0,1,.177-.8,3.022,3.022,0,0,0,.1-.929,1.736,1.736,0,0,1,.091-.616,3.416,3.416,0,0,0,.188-1.168,1.135,1.135,0,0,1,.12-.5,3.747,3.747,0,0,0,.285-1.265c.034-.524.268-1.009.285-1.533a6.534,6.534,0,0,1,.353-1.545,11.55,11.55,0,0,0,.416-2.246,1.026,1.026,0,0,0-.091-.638C131.854,47.02,132.19,46.41,132.526,45.8Z" transform="translate(-122.176 -43.304)" fill="#fff"/>
  <path id="Path_4072" data-name="Path 4072" d="M296,873.27a3.665,3.665,0,0,1,.285-.673c.051-.131.171-.1.268-.1h1.311c.1,0,.234.034.143-.16-.336-.712-.661-1.425-1.009-2.183-.228.456-.439.878-.655,1.3-.171-.091-.143-.256-.143-.4.006-1.562-.011-3.118,0-4.679a3,3,0,0,0-.011-.507l.8-1.767c.473,1.06.912,2.058,1.356,3.055a3.544,3.544,0,0,1,.029.65v5a.737.737,0,0,1-.074.467c-.69.063-1.379.011-2.075.029A.438.438,0,0,1,296,873.27Z" transform="translate(-279.186 -814.964)" fill="#fff"/>
  <path id="Path_4073" data-name="Path 4073" d="M23.456,888.043a.428.428,0,0,0-.353-.519,4.888,4.888,0,0,1,2.166-1.653c.16-.017.16.1.171.2a5.277,5.277,0,0,1-.006.849,4.306,4.306,0,0,0,.023,1.049,1.852,1.852,0,0,1-.057.707,3.349,3.349,0,0,0-1.032,1.733,3.522,3.522,0,0,0,.4,2.536,1.819,1.819,0,0,0-.1.838c.068.65-.04,1.3.034,1.949.028.251-.1.313-.393.234a3.471,3.471,0,0,1-1.151-1.02c.108-.274.336-.325.616-.291-.262-.148-.256-.188.011-.467a.71.71,0,0,0-.5.388c-.057.108-.074.234-.171.319a.186.186,0,0,1-.12-.16.542.542,0,0,0,.125-.422c-.04-.336.063-.672.011-1.009-.017-.137.063-.1.142-.08a.176.176,0,0,0,.222-.074.113.113,0,0,0-.017-.131c-.068-.085-.137-.028-.205,0-.165.063-.194-.074-.182-.165.023-.171.011-.342.017-.513.006-.091-.011-.194.131-.1a.088.088,0,0,0,.142-.034.1.1,0,0,0-.046-.125c-.142-.051-.194-.125-.125-.274.028-.068-.028-.125-.08-.171a.207.207,0,0,1-.074-.205,5.114,5.114,0,0,0,.091-1.379c.028-.388-.114-.781.063-1.157.011-.029.017-.091-.006-.108-.285-.285-.057-.57-.028-.872a2.065,2.065,0,0,1,.274.125c.051.085.034.234.205.222C23.644,888.134,23.507,888.129,23.456,888.043Z" transform="translate(-21.746 -835.493)" fill="#fff"/>
  <path id="Path_4074" data-name="Path 4074" d="M446.109,385.1a2.789,2.789,0,0,1,.285.621c.068.12-.006.211-.051.313-.331.7-.707,1.385-1.054,2.075a4.7,4.7,0,0,1-.53.986.749.749,0,0,0-.108.165c-.342.838-.815,1.607-1.22,2.411-.359.718-.718,1.442-1.1,2.154q-.3.564-.564,1.146c-.2.427-.473.815-.673,1.248-.3.644-.673,1.254-.969,1.9-.473,1.026-1.054,1.995-1.522,3.021a12.584,12.584,0,0,1-.787,1.471c-.228.365-.342.786-.564,1.146a10.066,10.066,0,0,1-.724,1.277h-.285c-.091-.046-.2.006-.3-.04a.267.267,0,0,1,0-.3,11.49,11.49,0,0,1,.8-1.562c.365-.559.593-1.18.9-1.767.331-.621.673-1.242.969-1.887.462-1,.992-1.961,1.516-2.93a8.5,8.5,0,0,0,.616-1.277,12.814,12.814,0,0,1,.747-1.374c.382-.792.775-1.584,1.186-2.36.427-.809.758-1.676,1.242-2.457a23.794,23.794,0,0,0,1.117-2.137c.268-.553.587-1.072.832-1.636A.345.345,0,0,1,446.109,385.1Z" transform="translate(-411.114 -363.265)" fill="#fff"/>
  <path id="Path_4075" data-name="Path 4075" d="M231.009,362c.274.541.524,1.089.747,1.653-.484.707-.935,1.442-1.419,2.149-.849,1.243-1.647,2.519-2.485,3.767-.262.393-.519.792-.787,1.18-.1.142-.2.279-.125.467a.089.089,0,0,1-.074.125c-.08-.171-.154-.342-.234-.513-.1-.427-.325-.8-.456-1.22a.5.5,0,0,1-.051-.3,10.6,10.6,0,0,1,.655-.855,3.2,3.2,0,0,0,.268-.5q1.077-1.659,2.166-3.3c.45-.678.861-1.385,1.368-2.023C230.741,362.439,230.855,362.205,231.009,362Z" transform="translate(-213.283 -341.482)" fill="#fff"/>
  <path id="Path_4076" data-name="Path 4076" d="M601.046,1009.428c-.1.217-.2.427-.3.644a.223.223,0,0,1-.228.165c-.861-.006-1.721-.006-2.622-.006.37-.809.724-1.59,1.094-2.36a16.739,16.739,0,0,0,.809-1.784c.04-.108.086-.188.239-.188.855.011,1.7.006,2.6.006a13.508,13.508,0,0,0-.8,1.767c.017.057.063.1.068.16,0,.4.12.8.08,1.208-.011.12.017.251-.08.348C601.616,1009.439,601.326,1009.377,601.046,1009.428Z" transform="translate(-563.879 -948.682)" fill="#fff"/>
  <path id="Path_4077" data-name="Path 4077" d="M465.395,412.568c-.142-.1-.182.04-.222.114-.359.684-.712,1.379-1.066,2.063-.222.427-.462.844-.673,1.277-.41.838-.844,1.67-1.271,2.5-.177.342-.365.684-.542,1.026-.513,1-1,2.012-1.539,3-.741,1.374-1.374,2.8-2.143,4.155-.4.707-.718,1.453-1.089,2.177-.165.319-.336.5-.707.445a.552.552,0,0,1-.1-.006c-.108-.131-.04-.257.011-.371.274-.627.638-1.208.923-1.824.467-1.014,1.02-1.983,1.522-2.981.37-.735.724-1.476,1.129-2.194.433-.769.821-1.562,1.208-2.354.559-1.14,1.174-2.251,1.738-3.391.718-1.453,1.5-2.873,2.189-4.343.137-.291.319-.559.485-.838.057-.1.12-.257.3-.137a1.881,1.881,0,0,1,.046.439,4.84,4.84,0,0,1-.063.992C465.52,412.42,465.543,412.546,465.395,412.568Z" transform="translate(-430.057 -387.547)" fill="#fff"/>
  <path id="Path_4078" data-name="Path 4078" d="M669.3,867.207a.206.206,0,0,0-.165.279c.177.353-.017.7,0,1.037.029.462-.051.929,0,1.385.085.747-.057,1.482-.046,2.223a.761.761,0,0,0,.1.382c.068.125.04.2-.1.222-.08-.165-.165-.331-.262-.536a6.942,6.942,0,0,0-.519,1.054.406.406,0,0,1-.467.291c-.348-.023-.7-.011-1.049-.017a.211.211,0,0,1-.125-.234c.068-.587-.017-1.174.034-1.755a5.253,5.253,0,0,0-.034-.735q1.026-2.231,2.052-4.457c.017-.04.017-.108.08-.091s.085.063.108.12C669.042,866.643,669.173,866.922,669.3,867.207Z" transform="translate(-628.723 -816.994)" fill="#fff"/>
  <path id="Path_4079" data-name="Path 4079" d="M426.7,880.51c-.462.006-.923.011-1.391.023-.222.006-.148-.154-.148-.256-.006-1.516-.011-3.026.006-4.542.006-.3-.086-.365-.359-.348a1.145,1.145,0,0,1-.6-.04,7.349,7.349,0,0,1,.057-.935c.986-.017,1.972,0,2.964-.011.16,0,.228.068.239.211a3.291,3.291,0,0,1,.034.821c-.057.365.006.741-.017,1.111-.017.342-.046.365-.382.365-.41,0-.37-.051-.37.359v2.964A.513.513,0,0,1,426.7,880.51Z" transform="translate(-400.079 -824.677)" fill="#fff"/>
  <path id="Path_4080" data-name="Path 4080" d="M385.321,139.143c-.222-.45-.439-.9-.621-1.374a.37.37,0,0,1,.188-.205c1.032-.69,2.058-1.379,3.095-2.058q1.248-.812,2.485-1.641a1.163,1.163,0,0,1,.3-.165,3.259,3.259,0,0,1,.969,1.134c.04.148-.08.205-.165.262-1.163.769-2.308,1.556-3.477,2.308-.815.524-1.6,1.077-2.417,1.6C385.572,139.08,385.475,139.194,385.321,139.143Z" transform="translate(-362.831 -126.194)" fill="#fff"/>
  <path id="Path_4081" data-name="Path 4081" d="M413.383,913.049c-.285,0-.57.006-.849.006a.055.055,0,0,1-.006-.051.469.469,0,0,1-.023-.251v-9.581a.421.421,0,0,1,.029-.251c.912-.154.912-.154.912.73v3.955c0,.422,0,.422.4.439a1.036,1.036,0,0,1,.074.849c-.108.154-.239.051-.359.034,0,.006-.011-.006-.017.006.04-.006-.017.006.023.006.086.023.143.1.234.1.046,0,.114.017.114.063.006.245.154.467.08.724-.063.234-.239.194-.456.137a.267.267,0,0,0,.217.085c.182.011.205.12.137.251a.421.421,0,0,0-.017.473c.057.1-.011.2-.091.274-.063.057-.16.131-.12.205a6.06,6.06,0,0,1,.205.747c.125.3.125.336-.171.416.279.205.313.308.2.633h-.342C413.5,912.941,413.44,912.941,413.383,913.049Z" transform="translate(-389.046 -851.5)" fill="#fff"/>
  <path id="Path_4082" data-name="Path 4082" d="M422.407,218.038c-.171-.365-.336-.724-.507-1.089.621-.376,1.208-.809,1.812-1.214.724-.484,1.465-.946,2.177-1.442s1.419-.952,2.143-1.4a.629.629,0,0,1,.376-.12q.829,1.77,1.653,3.539c.217.473.422.946.627,1.425a2.009,2.009,0,0,1-.245.5c-.068.114-.165.211-.313.085a.482.482,0,0,1-.1-.291c-.04-.291-.16-.559-.216-.849a5.6,5.6,0,0,0-.217-.747,8.723,8.723,0,0,0-.348-1.117,2.73,2.73,0,0,0-.177-.513c-.057-.211-.154-.41-.228-.616-.086-.239-.143-.262-.348-.12-.775.547-1.579,1.06-2.371,1.573-1.168.758-2.325,1.545-3.494,2.308C422.567,218.016,422.5,218.084,422.407,218.038Z" transform="translate(-397.911 -200.763)" fill="#fff"/>
  <path id="Path_4083" data-name="Path 4083" d="M572.227,522.166c-.165,0-.239-.074-.16-.228a1.8,1.8,0,0,1,.217-.462.393.393,0,0,0,.086-.177,1.406,1.406,0,0,1,.433-.929c.046-.051.131-.137.029-.188-.182-.091-.068-.217-.023-.279a15.393,15.393,0,0,0,.912-1.812,14.715,14.715,0,0,0,.787-1.4c.2-.5.5-.952.73-1.431.182-.388.256-.844.41-1.242.245-.65.644-1.243.935-1.875a15.763,15.763,0,0,0,.735-1.453c.091-.274.37-.467.365-.786a4.243,4.243,0,0,1-.4,3.317c-.747,1.385-1.556,2.736-2.291,4.126-.718,1.356-1.471,2.7-2.206,4.041A2.542,2.542,0,0,1,572.227,522.166Z" transform="translate(-539.488 -480.952)" fill="#fff"/>
  <path id="Path_4084" data-name="Path 4084" d="M256.676,420.9a13.135,13.135,0,0,1,.593,1.248q-.787,1.214-1.59,2.428c-.541.821-1.037,1.676-1.624,2.468a15.968,15.968,0,0,0-.923,1.4c-.205.342-.467.644-.673.986-.051.091-.12.205-.268.143a11.143,11.143,0,0,1-.49-1.134,10.38,10.38,0,0,1,.878-1.391c.427-.661.838-1.328,1.282-1.978.393-.57.792-1.134,1.157-1.727.49-.8,1.032-1.562,1.55-2.348A.42.42,0,0,1,256.676,420.9Z" transform="translate(-237.411 -397.024)" fill="#fff"/>
  <path id="Path_4085" data-name="Path 4085" d="M356.431,555c.513,1.117,1.032,2.234,1.545,3.351.142.313.285.633.45,1.009-1.59-.217-3.14-.1-4.674-.257-.046-.108.023-.182.074-.262.815-1.134,1.488-2.354,2.325-3.471C356.243,555.251,356.243,555.051,356.431,555Z" transform="translate(-333.633 -523.481)" fill="#fff"/>
  <path id="Path_4086" data-name="Path 4086" d="M103.594,102.412a6.12,6.12,0,0,1-.9-3.254,4.542,4.542,0,0,1,.519-1.784c.826-1.539,1.664-3.078,2.5-4.611a.283.283,0,0,1,.057-.063.271.271,0,0,1,.085.353,6.951,6.951,0,0,1-.467,1.425.421.421,0,0,0-.057.245,7.993,7.993,0,0,1-.239,1.47,2.661,2.661,0,0,1-.217.809.418.418,0,0,0-.006.251c.011.068.028.148-.011.194-.217.256-.142.616-.331.883-.125.177-.08.4-.125.6a3.706,3.706,0,0,0-.16.969,1.2,1.2,0,0,1-.108.61c-.08.165-.023.359-.068.53-.1.4-.217.8-.308,1.208C103.743,102.332,103.72,102.441,103.594,102.412Z" transform="translate(-96.886 -87.531)" fill="#fff"/>
  <path id="Path_4087" data-name="Path 4087" d="M210.523,1009.745c-.1.217-.194.427-.285.644a.2.2,0,0,1-.222.125c-.8,0-1.607,0-2.411-.006-.063,0-.2.04-.108-.114.633-.028,1.265-.006,1.9-.011.325-.006.319-.006.325-.331a5.653,5.653,0,0,0,.011-.929,11.394,11.394,0,0,1-.011-1.322c-.04-.53.029-1.071.006-1.6h2.445a12.442,12.442,0,0,0-.8,1.7c.029.148.148.08.228.08.5.011.992-.011,1.488.017a.3.3,0,0,1,.068.262,8.95,8.95,0,0,0,.057,1.174c.017.2-.068.262-.262.262-.718-.006-1.436-.006-2.16,0C210.694,1009.694,210.591,1009.643,210.523,1009.745Z" transform="translate(-195.698 -948.965)" fill="#fff"/>
  <path id="Path_4088" data-name="Path 4088" d="M203.171,290.5c-.057-.473-.114-.952-.171-1.425a.754.754,0,0,0,.331-.336c.9-1.4,1.841-2.776,2.747-4.172.279-.427.564-.849.855-1.271a.377.377,0,0,1,.228-.2,11.149,11.149,0,0,1,.576,1.242c.068.142-.029.239-.1.331-.433.507-.7,1.123-1.1,1.653-.564.758-1.037,1.585-1.573,2.36-.342.49-.65,1-.975,1.5-.16.245-.353.467-.5.724-.046.08-.114.16-.234.1C203.08,290.868,203.211,290.675,203.171,290.5Z" transform="translate(-191.487 -267.079)" fill="#fff"/>
  <path id="Path_4089" data-name="Path 4089" d="M380.957,121.724c-.029.091-.114.12-.182.171-1,.667-1.978,1.351-2.992,1.995-.975.616-1.915,1.288-2.884,1.909l-.6-1.317a.431.431,0,0,0,.291-.091c1.328-.883,2.667-1.761,4-2.645.376-.245.741-.5,1.117-.747A3.26,3.26,0,0,1,380.957,121.724Z" transform="translate(-353.024 -114.218)" fill="#fff"/>
  <path id="Path_4090" data-name="Path 4090" d="M456.874,396.855a3.752,3.752,0,0,0-.69,1.089c-.376.718-.707,1.459-1.106,2.171-.336.61-.627,1.248-.94,1.87-.251.5-.53.98-.769,1.488-.256.536-.564,1.043-.809,1.584-.279.61-.6,1.2-.929,1.784-.131.239-.234.5-.365.735-.376.707-.764,1.408-1.094,2.137-.251.547-.553,1.06-.832,1.6-.456.878-.929,1.755-1.351,2.65a8.037,8.037,0,0,0-.524,1.066.944.944,0,0,0-.057.3c-.188-.006-.382-.011-.57-.011-.023-.12.063-.194.108-.285.456-.8.8-1.647,1.254-2.445.217-.376.439-.769.621-1.151.353-.752.781-1.47,1.123-2.234.319-.707.718-1.379,1.077-2.075.182-.348.37-.7.519-1.066.171-.422.467-.764.627-1.2a15.624,15.624,0,0,1,.764-1.51c.342-.655.718-1.294,1.009-1.966a17.743,17.743,0,0,0,.861-1.71.9.9,0,0,1,.245-.41.472.472,0,0,0,.165-.348.45.45,0,0,1,.057-.188,23.049,23.049,0,0,0,1.18-2.263c.074-.16.262-.262.239-.467a1.71,1.71,0,0,1,.217.462C456.9,396.593,457,396.735,456.874,396.855Z" transform="translate(-421.423 -373.544)" fill="#fff"/>
  <path id="Path_4091" data-name="Path 4091" d="M414.509,181.506a7.4,7.4,0,0,1,.45,1.02c.034.114-.057.148-.125.194-.775.53-1.539,1.077-2.337,1.567-1.026.627-1.995,1.345-3.015,1.983-.222.142-.416.331-.65.456-.12.063-.234.137-.371.034L408,185.736a4.114,4.114,0,0,1,1.026-.747c1.5-.992,2.987-2,4.5-2.969.222-.143.427-.313.661-.439C414.292,181.518,414.389,181.444,414.509,181.506Z" transform="translate(-384.803 -171.253)" fill="#fff"/>
  <path id="Path_4092" data-name="Path 4092" d="M447.421,255.785a6.1,6.1,0,0,1,.342,1.14.739.739,0,0,1-.336.3c-1.123.724-2.229,1.47-3.346,2.206-.718.473-1.431.958-2.154,1.431-.1.063-.2.16-.336.063-.165-.365-.325-.724-.49-1.089.445-.325.906-.61,1.357-.929.678-.479,1.374-.94,2.086-1.362.507-.3.952-.673,1.453-.975.382-.228.758-.49,1.123-.758C447.216,255.739,447.318,255.642,447.421,255.785Z" transform="translate(-416.016 -241.251)" fill="#fff"/>
  <path id="Path_4093" data-name="Path 4093" d="M439.516,377.273a2.948,2.948,0,0,0-.467.912.3.3,0,0,1-.057.131,17.053,17.053,0,0,0-1.009,1.949c-.342.616-.684,1.231-1.009,1.852a7.11,7.11,0,0,0-.541,1.2c-.08.245-.274.433-.382.678-.279.616-.61,1.208-.923,1.807a5.322,5.322,0,0,1-.5.918,6.2,6.2,0,0,0-.541,1.083c-.274.519-.524,1.049-.792,1.573-.456.872-.958,1.727-1.368,2.622-.177.388-.427.735-.581,1.111-.222.553-.593,1.032-.769,1.607-.063.2-.1.4-.313.513a.051.051,0,0,0-.029.046c-.137.484-.5.861-.638,1.345-.051.182-.268.3-.222.536a.154.154,0,0,1-.188.011c-.068-.006-.142-.006-.211-.011a.317.317,0,0,1,.017-.393c.342-.559.616-1.146.9-1.733.336-.69.707-1.362,1.043-2.052.342-.707.707-1.408,1.066-2.109.205-.4.422-.8.633-1.2.268-.519.559-1.032.787-1.567a1.505,1.505,0,0,1,.376-.627.276.276,0,0,0,.08-.114c.2-.593.541-1.123.786-1.7.165-.4.4-.769.587-1.163.445-.94.986-1.83,1.453-2.759.262-.524.5-1.072.792-1.573.4-.69.667-1.442,1.111-2.109a6.381,6.381,0,0,0,.422-.838.906.906,0,0,1,.274-.422A1.7,1.7,0,0,1,439.516,377.273Z" transform="translate(-404.521 -355.438)" fill="#fff"/>
  <path id="Path_4094" data-name="Path 4094" d="M429.1,368.5a15.272,15.272,0,0,1-.969,1.869c-.137.222-.228.473-.348.707-.467.9-.918,1.807-1.385,2.707-.274.53-.513,1.094-.826,1.59-.388.6-.559,1.294-.969,1.881a2.49,2.49,0,0,0-.416.946c-.029.171-.228.251-.262.4-.086.4-.4.667-.53,1.026a11.909,11.909,0,0,0-.752,1.59c-.017.091-.114.171-.165.256-.484.849-.9,1.727-1.334,2.6-.274.553-.576,1.1-.855,1.653s-.542,1.134-.844,1.681a4.574,4.574,0,0,1-.564,1.054.505.505,0,0,0-.1.4H418.1c2.1-3.973,4.275-7.871,6.406-11.8a.881.881,0,0,1,.08-.3,24.223,24.223,0,0,0,1.488-3.363c.125-.217.137-.479.245-.7a.2.2,0,0,1,.063-.057.5.5,0,0,0,.194-.274c.359-.775.843-1.488,1.174-2.268.234-.559.633-1.032.821-1.624a1.782,1.782,0,0,1,.3-.479C428.946,368.165,429.02,368.331,429.1,368.5Z" transform="translate(-394.327 -347.14)" fill="#fff"/>
  <path id="Path_4095" data-name="Path 4095" d="M260.3,450.221a.26.26,0,0,0,.194-.148c.3-.445.61-.889.895-1.345.342-.553.747-1.066,1.1-1.607.849-1.288,1.681-2.593,2.525-3.887.1-.154.1-.41.359-.433a5.3,5.3,0,0,1,.433.975c-.633.992-1.254,1.989-1.921,2.958-.519.758-1,1.55-1.522,2.3-.467.678-.923,1.362-1.379,2.046a.233.233,0,0,1-.154.12A4.91,4.91,0,0,1,260.3,450.221Z" transform="translate(-245.521 -417.676)" fill="#fff"/>
  <path id="Path_4096" data-name="Path 4096" d="M172.113,24.142a.652.652,0,0,1-.074-.61,4.662,4.662,0,0,1,.382-1.482c.1-.177-.023-.427.017-.661a1.979,1.979,0,0,1,.182-.581c.04-.074.114-.188.091-.228a1.156,1.156,0,0,1-.006-.923,1.9,1.9,0,0,1,.245-.878.293.293,0,0,0,.068-.291c-.143-.268.068-.467.085-.7.028-.365.262-.7.171-1.077a.14.14,0,0,1,.057-.148c.1-.08.068-.165.034-.256a.876.876,0,0,1-.029-.8c.046-.074-.046-.142-.051-.211a2.336,2.336,0,0,1,.04-.661,1.232,1.232,0,0,0-.051-.9c-.074-.137.011-.285.051-.41a.863.863,0,0,0-.148-.764,2.111,2.111,0,0,1,.752-.861c.245.074.285.239.262.484a7.419,7.419,0,0,0-.04,1.129,7.118,7.118,0,0,1-.074,2.058.88.88,0,0,0-.006.422.694.694,0,0,1-.046.553.221.221,0,0,0-.034.165,1.139,1.139,0,0,1-.08.775,9.977,9.977,0,0,0-.336,1.579.441.441,0,0,0-.011.171,2.627,2.627,0,0,1-.182,1.562,8.56,8.56,0,0,0-.268,1.47.673.673,0,0,1-.108.376,11.009,11.009,0,0,0-.507,1.083c-.074.137-.114.291-.194.427C172.267,24.028,172.25,24.154,172.113,24.142Z" transform="translate(-162.253 -11.147)" fill="#fff"/>
  <path id="Path_4097" data-name="Path 4097" d="M467.928,304.87a.5.5,0,0,0,.057.285,1.709,1.709,0,0,1,.217,1.043,3.15,3.15,0,0,1-.547.342c-.627.4-1.225.855-1.864,1.248-.57.353-1.128.73-1.7,1.089-.416.262-.832.53-1.231.821-.114.085-.222.222-.4.137a8.687,8.687,0,0,1-.462-1.026,2.827,2.827,0,0,1,.832-.633c1-.707,2.04-1.351,3.066-2.018.593-.388,1.18-.792,1.773-1.18C467.751,304.922,467.814,304.836,467.928,304.87Z" transform="translate(-435.725 -287.601)" fill="#fff"/>
  <path id="Path_4098" data-name="Path 4098" d="M407.059,165.274a1.287,1.287,0,0,0-.524.274c-1.482.98-2.952,1.983-4.457,2.93-.479.3-.935.644-1.4.963a.894.894,0,0,1-.131.051c-.148-.325-.3-.644-.45-.969.484-.353.98-.678,1.482-1.009,1.59-1.054,3.192-2.092,4.771-3.158a.331.331,0,0,1,.234-.085A5.19,5.19,0,0,1,407.059,165.274Z" transform="translate(-377.353 -155.02)" fill="#fff"/>
  <path id="Path_4099" data-name="Path 4099" d="M249.7,406.314a3.651,3.651,0,0,1-.467.769c-.644.975-1.265,1.966-1.926,2.924-.627.918-1.2,1.869-1.835,2.781a7.526,7.526,0,0,1-.741,1.06l-.428-.923a2.828,2.828,0,0,1,.445-.787c.587-.895,1.2-1.778,1.778-2.673s1.168-1.75,1.727-2.639c.274-.433.6-.832.855-1.277.04-.068.085-.165.194-.091A4.851,4.851,0,0,1,249.7,406.314Z" transform="translate(-230.433 -382.439)" fill="#fff"/>
  <path id="Path_4100" data-name="Path 4100" d="M256.77,895c.165.046.114.2.114.285-.017,1.049-.006,2.1.006,3.152.006.616,0,1.231-.023,1.847a.5.5,0,0,0,.057.3c-.023.057-.068.051-.114.051H254.2C255.055,898.75,255.864,896.852,256.77,895Z" transform="translate(-239.769 -844.103)" fill="#fff"/>
  <path id="Path_4101" data-name="Path 4101" d="M336,923.716V918.1a1.484,1.484,0,0,1,.068-.5c.559,1.191,1.134,2.377,1.653,3.591a11.686,11.686,0,0,1,.017,2.32c-.017.171-.08.256-.268.245C336.98,923.721,336.484,923.79,336,923.716Z" transform="translate(-316.906 -865.415)" fill="#fff"/>
  <path id="Path_4102" data-name="Path 4102" d="M205.756,264.621c-.8,1.14-1.545,2.3-2.3,3.465-.536.821-1.083,1.636-1.624,2.456-.068.1-.137.12-.234.057v-.4a.538.538,0,0,1-.08-.4c0-.291-.017-.581.011-.878.393-.507.712-1.072,1.066-1.607.61-.923,1.254-1.83,1.83-2.781.182-.3.4-.576.6-.866.057-.08.108-.188.245-.142A11.764,11.764,0,0,1,205.756,264.621Z" transform="translate(-190.083 -248.605)" fill="#fff"/>
  <path id="Path_4103" data-name="Path 4103" d="M244.158,391.855c-.154.011-.148.16-.205.245-.456.678-.889,1.379-1.357,2.052-.724,1.054-1.391,2.149-2.12,3.2-.45.65-.849,1.334-1.328,1.966-.1-.211-.188-.416-.285-.627-.125-.593.359-.912.616-1.322.644-1.037,1.334-2.04,2.006-3.055.621-.946,1.248-1.887,1.869-2.833.114-.177.142-.422.4-.479A4.694,4.694,0,0,1,244.158,391.855Z" transform="translate(-225.287 -368.829)" fill="#fff"/>
  <path id="Path_4104" data-name="Path 4104" d="M196.684,311.669a3.257,3.257,0,0,0,.57-.764c.348-.524.673-1.077,1.032-1.585.507-.718.94-1.493,1.476-2.194a14.686,14.686,0,0,0,.929-1.482c.131-.228.388-.37.445-.644a5.138,5.138,0,0,1,.4.861.147.147,0,0,1-.023.182c-.541.7-.969,1.465-1.476,2.189-.388.547-.712,1.14-1.129,1.664a4.92,4.92,0,0,0-.234.456c-.376.576-.775,1.146-1.163,1.716-.114.165-.222.331-.336.49a.712.712,0,0,0-.091.57c.04.228.182.439.12.684a2.355,2.355,0,0,1-.4.114c-.291-.587-.564-1.18-.8-1.784a.376.376,0,0,1,.342-.074c.2.017.336-.017.3-.262A.122.122,0,0,1,196.684,311.669Z" transform="translate(-184.886 -287.73)" fill="#fff"/>
  <path id="Path_4105" data-name="Path 4105" d="M213.135,327.828a3.586,3.586,0,0,1-.217-.758c-.091-.388.205-.638.393-.906.217-.319.41-.655.655-.952.439-.541.747-1.174,1.134-1.75.507-.758,1.02-1.51,1.51-2.285.274-.433.576-.849.861-1.277a5.682,5.682,0,0,1,.456,1.026c-.365.53-.747,1.049-1.072,1.6-.245.416-.541.8-.8,1.208-.587.918-1.2,1.812-1.784,2.73a9.35,9.35,0,0,1-1.1,1.539C213.078,327.965,213.084,327.9,213.135,327.828Z" transform="translate(-200.824 -301.781)" fill="#fff"/>
  <path id="Path_4106" data-name="Path 4106" d="M430.8,236.541c1.049-.7,2.086-1.408,3.146-2.08.787-.5,1.539-1.06,2.348-1.527a7.036,7.036,0,0,0,.644-.462c.182-.137.262-.074.331.1.091.239.182.479.274.712-.268.217-.564.382-.849.57q-1.77,1.154-3.517,2.348c-.57.388-1.174.73-1.744,1.123-.068.046-.137.114-.234.068C431.062,237.111,430.931,236.826,430.8,236.541Z" transform="translate(-406.303 -219.266)" fill="#fff"/>
  <path id="Path_4107" data-name="Path 4107" d="M313.872,513.8a6.817,6.817,0,0,1,.445.975c-.017.308-.251.5-.393.735-.764,1.265-1.619,2.462-2.434,3.693a6.68,6.68,0,0,0-.49.764.312.312,0,0,1-.445.171,2.186,2.186,0,0,1-.8-.217c-.051-.131.04-.217.1-.308.661-.986,1.3-1.978,1.961-2.958.6-.883,1.163-1.8,1.778-2.667C313.649,513.887,313.712,513.767,313.872,513.8Z" transform="translate(-292.139 -484.625)" fill="#fff"/>
  <path id="Path_4108" data-name="Path 4108" d="M299.787,497.114a3.391,3.391,0,0,0-.73.958c-.57.918-1.208,1.79-1.784,2.7-.524.826-1.072,1.636-1.613,2.457a2.653,2.653,0,0,1-.861-.4c.542-.764,1-1.579,1.556-2.331a26.39,26.39,0,0,0,1.453-2.24c.148-.257.342-.479.513-.718.3-.416.553-.861.838-1.282.04-.063.074-.137.154-.154A9.131,9.131,0,0,1,299.787,497.114Z" transform="translate(-278.055 -467.939)" fill="#fff"/>
  <path id="Path_4109" data-name="Path 4109" d="M98.46,967.044a3.207,3.207,0,0,1-2.206,1.134l-.251.034c-.61.086-.6.086-.61-.513-.006-.217.051-.3.268-.245a.565.565,0,0,0,.336,0,2.756,2.756,0,0,0,2.075-1.2H96.1c.125-.268.245-.507.348-.747a8.577,8.577,0,0,0,.456-1.282.305.305,0,0,1,.376-.268c.37.023.741.011,1.111.017a.281.281,0,0,1,.068.239C98.414,965.152,98.437,966.1,98.46,967.044Z" transform="translate(-90.013 -909.131)" fill="#fff"/>
  <path id="Path_4110" data-name="Path 4110" d="M226.375,349.647c.006.285-.217.473-.353.655-.388.49-.661,1.054-1.032,1.545-.519.678-.906,1.431-1.391,2.132-.376.547-.775,1.089-1.106,1.664-.222.388-.507.718-.741,1.089a.579.579,0,0,1-.222.217c-.085.017-.114-.051-.137-.108a2.592,2.592,0,0,1-.194-.712.679.679,0,0,1,.108-.2c.792-1.163,1.539-2.348,2.325-3.517.724-1.072,1.408-2.166,2.137-3.232.074-.108.12-.239.268-.279A3.833,3.833,0,0,1,226.375,349.647Z" transform="translate(-208.65 -329.128)" fill="#fff"/>
  <path id="Path_4111" data-name="Path 4111" d="M502.046,994a.341.341,0,0,1,.1.479.3.3,0,0,0-.046.188c.148.37-.023.747.017,1.123a4.983,4.983,0,0,1-.068,1.51c-.023.114.085.165.108.251a4.266,4.266,0,0,1-2.285.764c-.017-.741.017-1.482,0-2.229a1.068,1.068,0,0,0-.068-.274,5,5,0,0,0,.855-.279A2.782,2.782,0,0,0,502.046,994Z" transform="translate(-471.371 -937.46)" fill="#fff"/>
  <path id="Path_4112" data-name="Path 4112" d="M428.633,994.786c.04-.074.085-.137.177-.074.177.125.222.011.217-.131-.006-.234.08-.473-.051-.7.3-.006.6.011.906-.017.211-.017.262.08.262.257,0,.2.006.4.006.593,0,1.294,0,2.593-.006,3.887,0,.1.074.234-.086.291l-1.032-.017c0-.114-.006-.222-.006-.336a.14.14,0,0,0-.125-.16c-.114-.017-.257-.011-.194-.188s.194-.08.3-.023c.034-.1.04-.182-.034-.251-.034-.029-.091-.068-.091-.1a1.381,1.381,0,0,0-.182-.735c-.046-.091.046-.177.131-.228s.188-.126.137-.188c-.239-.262-.034-.473.086-.724a.728.728,0,0,1-.342-.023c-.057-.023-.177.028-.154-.1a.147.147,0,0,1,.2-.108c.091.023.194.131.279.017a.379.379,0,0,0,.017-.427c-.086-.125-.04-.228-.017-.388C428.832,995.025,428.758,994.849,428.633,994.786Z" transform="translate(-404.182 -937.334)" fill="#fff"/>
  <path id="Path_4113" data-name="Path 4113" d="M461.987,290.263c-.849.61-1.733,1.168-2.61,1.738-.98.633-1.955,1.282-2.935,1.915-.131.086-.2.262-.382.279-.12-.262-.239-.524-.359-.792a.429.429,0,0,1,.222-.245c.684-.422,1.345-.878,2.012-1.328.98-.661,1.995-1.271,2.947-1.972.228-.165.5-.274.718-.456a.114.114,0,0,1,.154,0C461.833,289.693,461.913,289.978,461.987,290.263Z" transform="translate(-429.784 -272.993)" fill="#fff"/>
  <path id="Path_4114" data-name="Path 4114" d="M487.566,561a.206.206,0,0,1-.023.3c-.148.154.074.388-.068.445-.177.074-.205.211-.285.33-.051.074-.1.143-.04.228.131.182-.034.325-.1.456s-.137.011-.2-.063c-.029-.029-.08.029-.108.068-.063.1-.148.211-.063.313.125.154.04.251-.028.376-.3.587-.587,1.174-.883,1.767a.279.279,0,0,0-.017.222.253.253,0,0,1-.125.336.462.462,0,0,0-.217.353,3.436,3.436,0,0,1-.359,1.009c-.068.2-.348.051-.353.205-.006.1.12.194.034.342-.285.473-.559.952-.8,1.442a14.629,14.629,0,0,1-.844,1.693c-.034.046-.017.131-.023.194-.131,0-.268,0-.4-.006-.177-.051-.359.017-.53-.04l-.017.006-.017-.011c.393-.712.792-1.419,1.18-2.132q1.522-2.787,3.049-5.586c.388-.707.764-1.414,1.151-2.126A.989.989,0,0,1,487.566,561Z" transform="translate(-454.68 -529.139)" fill="#fff"/>
  <path id="Path_4115" data-name="Path 4115" d="M282.482,471.9a3.336,3.336,0,0,1,.353.8c-.262.484-.61.912-.906,1.374-.342.53-.712,1.054-1.049,1.59-.445.707-.957,1.368-1.385,2.08-.325.547-.678,1.072-1.049,1.59-.1.137-.171.336-.41.262a1.5,1.5,0,0,1-.4-.376.429.429,0,0,1,.12-.365c.559-.832,1.14-1.653,1.67-2.5.621-.986,1.305-1.926,1.9-2.93.291-.485.644-.935.952-1.414C282.323,471.942,282.38,471.868,282.482,471.9Z" transform="translate(-261.856 -445.108)" fill="#fff"/>
  <path id="Path_4116" data-name="Path 4116" d="M205.566,228.637a8.389,8.389,0,0,1,.576,1.311c-.285.479-.593.946-.906,1.4-.422.616-.815,1.254-1.237,1.864-.325.467-.661.923-.94,1.419-.057.1-.131.2-.262.08a.819.819,0,0,1,.011-.5,15.316,15.316,0,0,1,.513-2.149,4.727,4.727,0,0,1,.365-.98,1.327,1.327,0,0,0,.427-.479c.422-.6.809-1.231,1.231-1.835C205.389,228.694,205.424,228.563,205.566,228.637Z" transform="translate(-191.26 -215.699)" fill="#fff"/>
  <path id="Path_4117" data-name="Path 4117" d="M470.2,332.591a15.1,15.1,0,0,0,1.431-.906c.559-.353,1.128-.707,1.67-1.083.519-.359,1.066-.673,1.567-1.049a2.237,2.237,0,0,1,1.02-.553,1.283,1.283,0,0,1,.217.918c-.815.473-1.579,1.037-2.382,1.533a19.687,19.687,0,0,0-1.784,1.214c-.382.3-.832.49-1.214.786a.1.1,0,0,1-.131-.011C470.462,333.161,470.331,332.876,470.2,332.591Z" transform="translate(-443.458 -310.362)" fill="#fff"/>
  <path id="Path_4118" data-name="Path 4118" d="M275.012,460.684a4.45,4.45,0,0,0-.661.906c-.661,1.009-1.328,2.018-1.983,3.026s-1.351,2.018-2.018,3.038c-.074.108-.125.234-.194.348a1.791,1.791,0,0,1-.456-.576c.638-1.043,1.368-2.023,2.023-3.055.633-.992,1.317-1.955,1.966-2.935.234-.353.445-.718.655-1.089a.953.953,0,0,1,.325-.348Q274.85,460.342,275.012,460.684Z" transform="translate(-254.385 -433.896)" fill="#fff"/>
  <path id="Path_4119" data-name="Path 4119" d="M93.345,880a3.528,3.528,0,0,0-2.211-.462.338.338,0,0,1-.068-.291c.023-.576-.029-1.151-.011-1.721a.509.509,0,0,0-.154-.433,5.231,5.231,0,0,1,2.565.251c.165.285.057.593.051.889-.006.393-.011.792.006,1.186a1.984,1.984,0,0,1-.051.45C93.465,879.922,93.459,880.013,93.345,880Z" transform="translate(-85.776 -827.155)" fill="#fff"/>
  <path id="Path_4120" data-name="Path 4120" d="M133.7,1020.679a4.26,4.26,0,0,0,1.767-1.471.207.207,0,0,1,.188-.108h1.676a5.7,5.7,0,0,1-3.5,3.22,2.423,2.423,0,0,1-.114-1.14A3.721,3.721,0,0,0,133.7,1020.679Z" transform="translate(-126.137 -961.13)" fill="#fff"/>
  <path id="Path_4121" data-name="Path 4121" d="M133.8,885.062a.9.9,0,0,0,.1-.587,14.468,14.468,0,0,1,0-1.573c0-.165.011-.336.023-.5a6.318,6.318,0,0,1,2.548,1.693c.239.262.228.274-.051.5-.5.388-1,.775-1.5,1.174-.142.114-.234.142-.359-.023A4.3,4.3,0,0,0,133.8,885.062Z" transform="translate(-126.231 -832.221)" fill="#fff"/>
  <path id="Path_4122" data-name="Path 4122" d="M210.128,1005.984a2.114,2.114,0,0,1,.068,1.066c-.063.348.063.69,0,1.037a1.144,1.144,0,0,0,.063.787c.046.086-.057.3-.051.473a4.6,4.6,0,0,0,.023.741c.023.108-.028.16-.137.16-.7,0-1.4,0-2.1-.006-.028,0-.063-.04-.091-.057.61-1.351,1.225-2.7,1.83-4.058C209.826,1005.915,209.98,1005.978,210.128,1005.984Z" transform="translate(-196.108 -948.749)" fill="#fff"/>
  <path id="Path_4123" data-name="Path 4123" d="M222.483,338.616q-1.641,2.488-3.289,4.97c-.462.7-.918,1.385-1.374,2.08a.29.29,0,0,1-.131.142.689.689,0,0,1-.228-.741,6.746,6.746,0,0,1,.826-1.282c.234-.308.41-.65.627-.969.359-.524.718-1.043,1.054-1.573.433-.684.929-1.328,1.317-2.046.188-.348.473-.638.661-.992.051-.1.114-.2.251-.205C222.289,338.205,222.386,338.41,222.483,338.616Z" transform="translate(-205.094 -318.85)" fill="#fff"/>
  <path id="Path_4124" data-name="Path 4124" d="M147.22,967.083c-.194-.256-.091-.553-.1-.832-.017-.57-.011-1.14-.006-1.71,0-.177.023-.353.04-.53.712-.006,1.419-.006,2.132-.011.16,0,.211.057.205.217-.011.615-.017,1.231-.006,1.847,0,.177-.057.222-.228.222-.427-.011-.855.006-1.282-.006a.3.3,0,0,0-.342.205A1.466,1.466,0,0,1,147.22,967.083Z" transform="translate(-138.773 -909.17)" fill="#fff"/>
  <path id="Path_4125" data-name="Path 4125" d="M416.1,204.029a.871.871,0,0,0,.673-.313c.393-.342.866-.57,1.282-.872.456-.336.935-.638,1.4-.946s.952-.6,1.425-.918.94-.627,1.4-.958c.1-.074.268-.074.314-.222a4.166,4.166,0,0,1,.336.747c-.7.376-1.334.849-2.006,1.265-.462.291-.895.633-1.374.9-.61.336-1.146.8-1.744,1.151-.467.274-.821.741-1.385.849C416.317,204.485,416.208,204.257,416.1,204.029Z" transform="translate(-392.441 -188.526)" fill="#fff"/>
  <path id="Path_4126" data-name="Path 4126" d="M456.289,277.741c-.45.291-.9.581-1.345.878-.673.439-1.356.855-2.012,1.317-.7.5-1.448.918-2.132,1.436-.177.137-.382.234-.564.37-.114-.251-.222-.5-.336-.747.274,0,.439-.211.638-.342,1-.638,1.978-1.317,2.969-1.978.843-.564,1.7-1.117,2.553-1.676A3.713,3.713,0,0,1,456.289,277.741Z" transform="translate(-424.315 -261.326)" fill="#fff"/>
  <path id="Path_4127" data-name="Path 4127" d="M507.746,876.784c-.222.217-.131.5-.148.758-.029.382.085.764.034,1.146-.017.114-.04.222-.057.336a5.918,5.918,0,0,0,.091.952c.006.137.057.262-.1.342a3.143,3.143,0,0,0-1.818-1.761,1.334,1.334,0,0,1-.057-.473c0-.353,0-.7-.011-1.054-.011-.308.051-.615.017-.929A4.768,4.768,0,0,1,507.746,876.784Z" transform="translate(-476.911 -826.28)" fill="#fff"/>
  <path id="Path_4128" data-name="Path 4128" d="M291.983,9.811a9.809,9.809,0,0,1-.633,1.151,1.29,1.29,0,0,1-.348-.724,3.38,3.38,0,0,1-.04-1.174,4.064,4.064,0,0,0-.148-1.032c-.017-.194-.046-.388-.046-.587a4.022,4.022,0,0,0-.211-1.493.914.914,0,0,1-.023-.393.52.52,0,0,1,.188-.359c.211.006.422.006.627.011a.243.243,0,0,1,.251.217,7.515,7.515,0,0,1,.325,2.588.675.675,0,0,0,.051.279A2.547,2.547,0,0,1,291.983,9.811Z" transform="translate(-274.023 -5.018)" fill="#fff"/>
  <path id="Path_4129" data-name="Path 4129" d="M402.248,154.116c-1.351.94-2.73,1.835-4.115,2.724-.684.439-1.345.912-2.023,1.362-.108.074-.2.182-.348.165-.086-.188-.171-.376-.262-.559q1.129-.735,2.251-1.476c.638-.422,1.277-.838,1.915-1.265.678-.45,1.351-.9,2.029-1.351a.469.469,0,0,0,.217-.217A1.976,1.976,0,0,1,402.248,154.116Z" transform="translate(-373.015 -144.865)" fill="#fff"/>
  <path id="Path_4130" data-name="Path 4130" d="M469.718,1025.9a.175.175,0,0,1,.165.222c-.1.291.04.576.011.861a3.6,3.6,0,0,0,0,1.134c.023.1-.063.194-.108.285-.57.006-1.134.006-1.7.017-.125,0-.182-.029-.182-.171.006-.718.006-1.436,0-2.16,0-.16.063-.182.2-.182C468.641,1025.911,469.182,1025.906,469.718,1025.9Z" transform="translate(-441.289 -967.542)" fill="#fff"/>
  <path id="Path_4131" data-name="Path 4131" d="M124.722,77.9c.131.011.182.086.182.211a5.781,5.781,0,0,1-.256,1.875,1.091,1.091,0,0,0-.023.336c0,.057.046.114,0,.16-.228.228-.16.547-.279.815a3.958,3.958,0,0,0-.239,1.385,2.235,2.235,0,0,1-.131.462c-.16.5-.137,1.026-.245,1.527a4.1,4.1,0,0,1-.2.484c-.125.41-.068.832-.154,1.242a4.208,4.208,0,0,1-.177.536,2.954,2.954,0,0,0-.04.775,2.112,2.112,0,0,1-.131.684,3.981,3.981,0,0,0-.171,1.129c-.011.114-.04.182-.165.171-.131-.268-.262-.53-.393-.8a6.429,6.429,0,0,0,.325-1.83,1.018,1.018,0,0,1,.154-.513c.125-.228.12-.5.256-.718a.147.147,0,0,0,.017-.108,2.676,2.676,0,0,1,.3-1.8.875.875,0,0,0,.068-.359,4.2,4.2,0,0,1,.319-1.539.968.968,0,0,0,.063-.553.187.187,0,0,1,.011-.165,3.987,3.987,0,0,0,.336-1.282c.046-.205.217-.325.262-.53a2.621,2.621,0,0,0,.074-1.151C124.563,78.2,124.643,78.054,124.722,77.9Z" transform="translate(-115.386 -73.574)" fill="#fff"/>
  <path id="Path_4132" data-name="Path 4132" d="M653.1,1039.132a3.543,3.543,0,0,1,.849-.051.564.564,0,0,1,.382-.08c.428,0,.849-.006,1.277,0,.194.006.257-.063.268-.262a4.276,4.276,0,0,0-.006-.935.455.455,0,0,1,.063-.382c.792-.046,1.59-.005,2.382-.022a.185.185,0,0,1,.205.154.587.587,0,0,1,.029.165c-.04.6,0,1.2.011,1.807a.264.264,0,0,1-.051.131c-.006.006-.012.017-.017.023-.536.262-.547.268-.764-.279a.4.4,0,0,0-.444-.279C655.887,1039.138,654.5,1039.132,653.1,1039.132Z" transform="translate(-615.933 -978.386)" fill="#fff"/>
  <path id="Path_4133" data-name="Path 4133" d="M565.634,343.476c-.159.353-.291.73-.484,1.066-.319.547-.581,1.117-.866,1.676-.325.638-.7,1.248-1,1.9-.017.04-.046.091-.1.04-.085-.1-.04-.217-.011-.325l.188-.769a10.609,10.609,0,0,0,.228-1.26c.068-.422.08-.844.108-1.265.051-.131.023-.279.08-.41a1.764,1.764,0,0,0,.376-.553,10.99,10.99,0,0,1,.593-1.151c.1-.131.063-.325.217-.422C565.207,342.479,565.435,342.975,565.634,343.476Z" transform="translate(-531.095 -322.621)" fill="#fff"/>
  <path id="Path_4134" data-name="Path 4134" d="M502.406,405.463a4.271,4.271,0,0,1-.228,1.254,13.377,13.377,0,0,0-1.3.815c-.638.422-1.294.826-1.927,1.26-.1.068-.188.177-.331.1-.142-.308-.279-.616-.422-.923a.244.244,0,0,1,.143-.165c.866-.524,1.71-1.083,2.536-1.664.41-.291.849-.536,1.26-.821a.22.22,0,0,1,.239-.046C502.458,405.315,502.446,405.389,502.406,405.463Z" transform="translate(-469.862 -382.266)" fill="#fff"/>
  <path id="Path_4135" data-name="Path 4135" d="M277.474,1036.22c-.519-.006-1.037-.006-1.55-.011-.063,0-.211.074-.165-.108.074.137.205.074.308.074,1.7.006,3.4.011,5.1.006a.346.346,0,0,1,.382.245c.148.359.319.707.484,1.054.068.143.063.239-.1.308-.655.273-1.305.559-1.955.844-.114.051-.171.034-.217-.08l-.137-.342c-.011-.518-.023-1.037.011-1.55.017-.3-.051-.359-.365-.365-.473-.006-.94,0-1.413,0A.577.577,0,0,1,277.474,1036.22Z" transform="translate(-260.09 -977.161)" fill="#fff"/>
  <path id="Path_4136" data-name="Path 4136" d="M496.371,387.028c0-.211-.091-.188-.228-.1-.484.325-.98.644-1.465.969-.826.559-1.647,1.129-2.514,1.63-.12-.262-.245-.53-.365-.792a1.74,1.74,0,0,1,.5-.37c.775-.53,1.545-1.06,2.343-1.556.439-.274.883-.547,1.311-.849a1.1,1.1,0,0,1,.5-.262.281.281,0,0,0,.04.017A4.606,4.606,0,0,1,496.371,387.028Z" transform="translate(-463.827 -363.831)" fill="#fff"/>
  <path id="Path_4137" data-name="Path 4137" d="M64.5,877.919c.194-.029.239.068.234.245-.023.735.046,1.471,0,2.206a3.968,3.968,0,0,0-1.7.809c-.017-.051-.063-.108-.051-.16.091-.684-.08-1.374.028-2.063.023-.165.1-.422-.1-.581A4.019,4.019,0,0,1,64.5,877.919Z" transform="translate(-59.372 -827.99)" fill="#fff"/>
  <path id="Path_4138" data-name="Path 4138" d="M229,103.368c.017-.057.04-.114.057-.171l.684-1.2a.483.483,0,0,1,.091.376c-.011.576.228,1.117.171,1.7a3.333,3.333,0,0,0,.12,1.18,1.131,1.131,0,0,1,.034.616,1.014,1.014,0,0,0,.063.661,2.125,2.125,0,0,1,.205.9,10.4,10.4,0,0,0-.467,1.066c-.028.085-.046.182-.16.194-.257-.16-.211-.439-.285-.678-.177-.587-.04-1.231-.365-1.79a.148.148,0,0,1-.017-.108c.171-.564-.1-1.1-.108-1.659A5.855,5.855,0,0,0,229,103.368Z" transform="translate(-216.005 -96.3)" fill="#fff"/>
  <path id="Path_4139" data-name="Path 4139" d="M477.1,349.238c.45-.336.969-.57,1.414-.923.365-.291.775-.53,1.163-.792.832-.57,1.716-1.066,2.531-1.659.114-.08.217-.154.359-.1a.214.214,0,0,1,.068.12c.006.194.1.388.034.587a9.353,9.353,0,0,1-.895.593c-1.089.735-2.194,1.448-3.272,2.206-.279.194-.6.331-.866.541a.243.243,0,0,1-.239.051C477.294,349.654,477.2,349.449,477.1,349.238Z" transform="translate(-449.964 -326.155)" fill="#fff"/>
  <path id="Path_4140" data-name="Path 4140" d="M189.927,17.941a.2.2,0,0,1-.046-.234c.217-.53.2-1.117.4-1.659a1.346,1.346,0,0,0,.074-1.083,1.517,1.517,0,0,1,.114-.958,10.2,10.2,0,0,1,.359-1.3.2.2,0,0,0-.028-.194.3.3,0,0,1,.023-.393.324.324,0,0,0,.051-.319c-.034-.148-.108-.313-.063-.439a3.37,3.37,0,0,0,.143-1.356c-.029-.319.1-.673-.085-.98-.017-.028.006-.091.023-.137.108-.319-.034-.667.108-.992.063-.148-.165-.211-.217-.336A1.124,1.124,0,0,1,191.3,7.3a.138.138,0,0,1,.034.046,8.14,8.14,0,0,1,.1,1.579,2.158,2.158,0,0,0-.011.507,2.8,2.8,0,0,1-.006.536c-.011.547-.074,1.089-.1,1.63a4.692,4.692,0,0,0,.023,1.231.491.491,0,0,1-.057.331,1.916,1.916,0,0,0-.211,1.174.11.11,0,0,1-.006.085,1.969,1.969,0,0,0-.188.9c-.028.41-.171.8-.171,1.214-.034.131-.228.188-.16.365-.046.319-.285.547-.393.838C190.081,17.8,190.075,17.947,189.927,17.941Z" transform="translate(-179.098 -6.998)" fill="#fff"/>
  <path id="Path_4141" data-name="Path 4141" d="M428.862,874.115a.232.232,0,0,1,.1.3.615.615,0,0,0-.034.388c.1.353-.068.7.023,1.066a1.261,1.261,0,0,1-.034.707c-.644-.057-1.288-.023-1.932-.04-.205-.006-.251.063-.251.256.011,1.02.006,2.046,0,3.066,0,.091.04.188-.034.268v-3.357c0-.177.017-.279.239-.279.473,0,.49-.011.467-.479a6.342,6.342,0,0,1,.023-1.185,2.46,2.46,0,0,0-.057-.673c-.023-.154-.16-.1-.256-.1H424.24c-.023.023-.034.023-.04-.011.04-.062.1-.04.154-.04,1.294.017,2.593-.046,3.887.04C428.452,874.058,428.657,874.086,428.862,874.115Z" transform="translate(-400.079 -824.289)" fill="#fff"/>
  <path id="Path_4142" data-name="Path 4142" d="M62.205,1023a3.032,3.032,0,0,0,1.157.616c.137.034.16.1.154.216-.006.131,0,.262,0,.394,0,.41,0,.41.4.433a.211.211,0,0,1,.046.1c.057.427-.046.855.028,1.282.011.08.017.217-.142.211a4.4,4.4,0,0,1-1.7-.456,3.166,3.166,0,0,1-.108-.866c.011-.433.028-.861,0-1.294A.817.817,0,0,1,62.205,1023Z" transform="translate(-58.557 -964.808)" fill="#fff"/>
  <path id="Path_4143" data-name="Path 4143" d="M242.446,91.495c-.143-.422-.279-.844-.422-1.265a.125.125,0,0,1,.017-.125.971.971,0,0,0,.04-.735,4.057,4.057,0,0,1-.108-1.613.519.519,0,0,0-.068-.382.6.6,0,0,1-.085-.5c.034-.274-.125-.53-.063-.8.171-.325.342-.644.513-.969.046.023.091.057.091.1-.006.473.319.872.268,1.368a2.575,2.575,0,0,0,.12,1.225.956.956,0,0,1,.011.422,1.445,1.445,0,0,0,.188,1.083.218.218,0,0,1,.051.1,5.137,5.137,0,0,1,.074,1.066A9.5,9.5,0,0,1,242.446,91.495Z" transform="translate(-228.02 -80.364)" fill="#fff"/>
  <path id="Path_4144" data-name="Path 4144" d="M482.2,362.457c.69-.416,1.368-.861,2.035-1.317,1-.69,2.023-1.345,3.038-2.006a.5.5,0,0,1,.165-.034.228.228,0,0,1,.068.125,2.431,2.431,0,0,0,.051.576.52.52,0,0,1-.063.439c-.023.131.051.279-.057.4h0c-.114-.142-.057-.308-.068-.467-.011-.143-.051-.16-.171-.085-.8.524-1.6,1.043-2.388,1.579-.667.45-1.345.878-2.006,1.334-.086.057-.177.16-.3.086C482.394,362.873,482.3,362.662,482.2,362.457Z" transform="translate(-454.774 -338.747)" fill="#fff"/>
  <path id="Path_4145" data-name="Path 4145" d="M202.97,14.4c-.04-.234-.154-.473.086-.684.04-.034-.051-.188-.023-.268.142-.365-.046-.787.228-1.123a.194.194,0,0,0,.046-.131,1.865,1.865,0,0,1,.251-1.345.6.6,0,0,0-.006-.456.82.82,0,0,1-.011-.5c.063-.313-.091-.633.04-.946.177-.422-.063-.861.068-1.294a.812.812,0,0,0-.028-.53c-.091-.228.091-.422.057-.661a10.69,10.69,0,0,1-.08-1.351l.342-.12a.163.163,0,0,1,.148.205,1.325,1.325,0,0,0,.051.712,1.119,1.119,0,0,1-.04.638,3.427,3.427,0,0,0-.04,1.556,3.316,3.316,0,0,1-.108,1.049,3.981,3.981,0,0,0,.023.94,3.975,3.975,0,0,1-.08.906,8.162,8.162,0,0,0-.182,1.243,3.8,3.8,0,0,1-.142.6,1.357,1.357,0,0,0-.023.524c.08.171-.091.268-.125.4a2.1,2.1,0,0,1-.4.633A.111.111,0,0,1,202.97,14.4Z" transform="translate(-191.4 -4.829)" fill="#fff"/>
  <path id="Path_4146" data-name="Path 4146" d="M263.659,1037.9c.644-.006,1.294.017,1.938-.017.382-.023.336.268.319.422-.051.473-.011.946-.034,1.419a.194.194,0,0,1-.074.171c-.08-.256-.251-.313-.513-.308-1.288.017-2.57.006-3.859.006a.835.835,0,0,0-.336.029c.063-.125.182-.08.279-.08.678-.006,1.362,0,2.04-.006.1,0,.251.068.291-.091s.017-.291-.245-.325c.239-.1.251-.194.182-.4A2.652,2.652,0,0,1,263.659,1037.9Z" transform="translate(-246.275 -978.837)" fill="#fff"/>
  <path id="Path_4147" data-name="Path 4147" d="M324,536.358a.325.325,0,0,0,.359-.16c.422-.741.935-1.413,1.408-2.12.678-1.02,1.334-2.052,2-3.078.114.245.228.5.342.741a8.533,8.533,0,0,1-.61,1.037c-.53.764-1.014,1.556-1.539,2.32a9.034,9.034,0,0,0-.769,1.191.248.248,0,0,1-.257.148,1.931,1.931,0,0,1-.479-.023A.881.881,0,0,1,324,536.358Z" transform="translate(-305.59 -500.849)" fill="#fff"/>
  <path id="Path_4148" data-name="Path 4148" d="M437.8,252.015q2.189-1.445,4.372-2.9c.536-.353,1.072-.7,1.607-1.054a.9.9,0,0,1,.359-.165l.171.513c-.291-.006-.445.239-.667.359a10.444,10.444,0,0,1-1.288.815c-.165.063-.205.239-.348.325a11.887,11.887,0,0,0-1.129.684c-.832.6-1.727,1.111-2.536,1.733a1.288,1.288,0,0,1-.342.131A1.124,1.124,0,0,1,437.8,252.015Z" transform="translate(-412.904 -233.885)" fill="#fff"/>
  <path id="Path_4149" data-name="Path 4149" d="M201.722,256.788a.189.189,0,0,0,.171-.125c.308-.6.741-1.106,1.094-1.676.165-.262.353-.507.524-.764.433-.661.861-1.322,1.288-1.989a.591.591,0,0,1,.239-.234c.1.228.2.45.3.678a5.1,5.1,0,0,0-.832,1.134q-.949,1.462-1.932,2.9c-.245.359-.467.73-.7,1.1-.051.08-.086.171-.205.171-.108-.108-.063-.257-.08-.382a4.478,4.478,0,0,1,.011-.479C201.653,257.016,201.528,256.845,201.722,256.788Z" transform="translate(-190.152 -237.751)" fill="#fff"/>
  <path id="Path_4150" data-name="Path 4150" d="M93.7,1048.7a.18.18,0,0,0,.068-.228c-.12-.382.04-.769-.04-1.151a.76.76,0,0,1,.04-.217,4.178,4.178,0,0,0,2.206-.308.24.24,0,0,1,.125.262,5.925,5.925,0,0,0,.006,1.385A5,5,0,0,1,93.7,1048.7Z" transform="translate(-88.417 -987.251)" fill="#fff"/>
  <path id="Path_4151" data-name="Path 4151" d="M155.991,321.381a1.479,1.479,0,0,0,.029.222c.057.205-.057.251-.222.251s-.336-.006-.507-.011c-.638-1.379-1.282-2.759-1.921-4.138-.177-.382-.348-.775-.519-1.163a4.645,4.645,0,0,1,.051-1.015c.023-.08-.04-.228.1-.228a.241.241,0,0,1,.239.239,1.242,1.242,0,0,0,.182.673c.2.353.051.826.393,1.123-.091.462.473.741.353,1.214a.146.146,0,0,0,.04.1c.4.331.5.855.821,1.237a.268.268,0,0,1,.046.217.805.805,0,0,0,.7.855c.08.006.1-.028.108-.091C156.008,321.017,155.871,321.227,155.991,321.381Z" transform="translate(-144.193 -297.443)" fill="#fff"/>
  <path id="Path_4152" data-name="Path 4152" d="M280.92,10.951a1.911,1.911,0,0,0,.125.616,1.888,1.888,0,0,1,.125.661,6.67,6.67,0,0,0,.188,2.018.793.793,0,0,1,.011.365,2.272,2.272,0,0,0,.245,1.613c.023.051.034.108.051.16a7.168,7.168,0,0,1-.519.94.34.34,0,0,1-.262-.336,4.853,4.853,0,0,1-.051-.707.464.464,0,0,0-.017-.251,5.144,5.144,0,0,1-.262-1.949,8.319,8.319,0,0,0-.245-1.59c-.034-.12-.034-.245-.057-.365a.822.822,0,0,1,.194-.519c.091-.154.165-.319.256-.473C280.749,11.042,280.783,10.928,280.92,10.951Z" transform="translate(-264.334 -10.438)" fill="#fff"/>
  <path id="Path_4153" data-name="Path 4153" d="M487.2,376.311c.587-.3,1.094-.73,1.653-1.083.741-.467,1.465-.963,2.194-1.448.291-.194.581-.382.872-.581.051-.034.1-.1.171-.063s.051.114.051.177c.006.182,0,.359,0,.541-.524.331-1.054.65-1.562,1.015-.382.274-.8.49-1.186.752-.313.211-.633.4-.935.627a4.543,4.543,0,0,1-1,.633C487.377,376.693,487.291,376.5,487.2,376.311Z" transform="translate(-459.489 -351.974)" fill="#fff"/>
  <path id="Path_4154" data-name="Path 4154" d="M251.9,75.158a3.26,3.26,0,0,1-.12-.963.21.21,0,0,0-.04-.131,1.354,1.354,0,0,1-.194-1.254.418.418,0,0,0-.011-.251,3.289,3.289,0,0,1-.148-1.5.713.713,0,0,0-.12-.479c-.194-.228-.029-.536-.165-.781v-.057a2.717,2.717,0,0,1,.4-.8c.028-.057.091-.1.154-.017a5.221,5.221,0,0,1,.194,1.254.15.15,0,0,0,.011.085,9.817,9.817,0,0,1,.342,2.667,1.416,1.416,0,0,0,.1.433,1.628,1.628,0,0,1,.108.889A5.125,5.125,0,0,1,251.9,75.158Z" transform="translate(-236.845 -65.058)" fill="#fff"/>
  <path id="Path_4155" data-name="Path 4155" d="M249.2,6.573l-.513.855a.7.7,0,0,1-.1-.638,3.129,3.129,0,0,0,.08-.935,3.961,3.961,0,0,1,.028-.821,2.2,2.2,0,0,0,.046-.883,4.215,4.215,0,0,1,.034-.8,2.348,2.348,0,0,1-.04-.524A.276.276,0,0,0,248.8,2.8h.342c.1.006.188.011.285.023.177.011.256.068.313.268a2.179,2.179,0,0,1-.006.838,7.038,7.038,0,0,1-.108,1.294,1.19,1.19,0,0,0-.029.616.521.521,0,0,1-.006.091C249.47,6.146,249.43,6.414,249.2,6.573Z" transform="translate(-234.44 -2.754)" fill="#fff"/>
  <path id="Path_4156" data-name="Path 4156" d="M517.508,462.509a23.154,23.154,0,0,1-1.63,3.642,5.565,5.565,0,0,0-.416-.986c-.148-.359-.308-.707-.462-1.06.137-.228.4-.262.593-.422.542-.439,1.163-.764,1.733-1.163A.139.139,0,0,1,517.508,462.509Z" transform="translate(-485.704 -436.234)" fill="#fff"/>
  <path id="Path_4157" data-name="Path 4157" d="M331.9,548.579a2.871,2.871,0,0,1,.313,0,.36.36,0,0,0,.428-.285,3.26,3.26,0,0,1,.484-.764c.5-.741.986-1.493,1.488-2.234.268-.388.5-.8.752-1.191a2.22,2.22,0,0,1,.194-.205,2.827,2.827,0,0,1,.285.627c-.519.895-1.163,1.71-1.693,2.6-.308.519-.684.986-.986,1.5A6.239,6.239,0,0,1,331.9,548.579Z" transform="translate(-313.04 -513.014)" fill="#fff"/>
  <path id="Path_4158" data-name="Path 4158" d="M671.109,1039.191c-.148-.462.034-.946-.1-1.419-.051-.176.091-.387.051-.6-.028-.154-.068-.211-.222-.211-.764.005-1.528.005-2.3.012a5.075,5.075,0,0,1-2.052-.006c-.034-.017-.046-.04-.006-.062.114.006.228.017.336.017,1.67,0,3.34.006,5.01-.006a.414.414,0,0,1,.456.28c.148.359.313.707.479,1.06.063.131.04.211-.1.268C672.152,1038.752,671.645,1039,671.109,1039.191Z" transform="translate(-628.528 -977.915)" fill="#fff"/>
  <path id="Path_4159" data-name="Path 4159" d="M260,58.627a4.456,4.456,0,0,1,.342-.627c.251.023.365.137.331.41a13,13,0,0,0,.068,1.328.775.775,0,0,0,.108.382c.125.228.245.456.085.718a.07.07,0,0,0-.011.057,9.2,9.2,0,0,0,.2,1.2,1.059,1.059,0,0,1,.114.684c-.029.12.04.239.04.365A5.432,5.432,0,0,1,260.8,64c-.108-.16-.023-.353-.091-.524a5.967,5.967,0,0,1-.268-1.926,1.211,1.211,0,0,0-.12-.627.147.147,0,0,1,.011-.16.468.468,0,0,0-.074-.524.443.443,0,0,1-.1-.416.87.87,0,0,0-.074-.553A1.8,1.8,0,0,1,260,58.627Z" transform="translate(-245.238 -54.808)" fill="#fff"/>
  <path id="Path_4160" data-name="Path 4160" d="M305.444,9.717a.867.867,0,0,1,.011-.564,2.1,2.1,0,0,0-.091-.963,4.642,4.642,0,0,1-.051-1.123,5.766,5.766,0,0,0-.256-1.385c-.017-.074-.091-.131-.068-.234A.3.3,0,0,0,304.8,5.1c.359.017.718.04,1.083.057a1.7,1.7,0,0,1,.085.61,1.335,1.335,0,0,0,.068.587,2.585,2.585,0,0,1,.091,1.231,2.6,2.6,0,0,0,.057.758A12.248,12.248,0,0,1,305.444,9.717Z" transform="translate(-287.485 -4.923)" fill="#fff"/>
  <path id="Path_4161" data-name="Path 4161" d="M121.182,85.8c.251.313.068.65.051.975-.023.37-.348.621-.382,1a1.6,1.6,0,0,1-.154.735,1.54,1.54,0,0,0-.114.6,4.515,4.515,0,0,1-.359,1.265,1.1,1.1,0,0,0-.017.6,1.506,1.506,0,0,1-.182.718c-.131.285-.16.593-.279.878a.684.684,0,0,0,.068.5.37.37,0,0,1-.029.313,4.072,4.072,0,0,0-.433,1.755c.029.4-.285.7-.222,1.083a.126.126,0,0,1-.125.131c-.068-.148-.137-.3-.205-.45.023-.028.063-.057.068-.085a10.06,10.06,0,0,0,.331-1.533.4.4,0,0,1,.017-.114,5.133,5.133,0,0,0,.16-1.049,5.052,5.052,0,0,1,.165-.826,3.625,3.625,0,0,0,.234-.764,1.514,1.514,0,0,1,.217-.576.151.151,0,0,0,.017-.108c-.108-.239.046-.422.108-.638.108-.388.154-.787.239-1.18a6.107,6.107,0,0,1,.388-1.636,9.946,9.946,0,0,0,.279-.963c.023-.068-.029-.16-.046-.245A.9.9,0,0,1,121.182,85.8Z" transform="translate(-112.086 -81.024)" fill="#fff"/>
  <path id="Path_4162" data-name="Path 4162" d="M284.9,492.9c.325-.086.422-.393.581-.627.541-.792,1.032-1.619,1.573-2.411.5-.73.963-1.488,1.453-2.223.336-.513.7-1.009,1.043-1.51A.64.64,0,0,1,289.7,486c.057.114.114.222.165.336a4.411,4.411,0,0,1-.524.849,19.01,19.01,0,0,0-1.1,1.659c-.342.519-.65,1.066-1.014,1.573-.479.667-.94,1.345-1.4,2.023-.171.256-.262.57-.536.758A1.193,1.193,0,0,1,284.9,492.9Z" transform="translate(-268.719 -458.414)" fill="#fff"/>
  <path id="Path_4163" data-name="Path 4163" d="M608.741,408.089a4.222,4.222,0,0,0,.114-1.254,2.631,2.631,0,0,0,.034-.559c.006-.063-.051-.16.068-.177.291.593.576,1.191.815,1.812a5.3,5.3,0,0,1-.422.821c-.2.37-.308.787-.5,1.157-.211.393-.16.872-.467,1.242a.271.271,0,0,1-.382.1,16.869,16.869,0,0,0,.712-2.855C608.724,408.277,608.729,408.18,608.741,408.089Z" transform="translate(-573.403 -383.068)" fill="#fff"/>
  <path id="Path_4164" data-name="Path 4164" d="M505.6,432.308a5.962,5.962,0,0,0,1.026-.644c.764-.479,1.51-.986,2.263-1.476.08-.051.148-.177.262-.046-.017.37-.188.712-.228,1.083h-.057a.641.641,0,0,0-.388.148c-.786.484-1.545,1.015-2.308,1.533-.085.057-.16.143-.279.091C505.8,432.764,505.7,432.536,505.6,432.308Z" transform="translate(-476.84 -405.685)" fill="#fff"/>
  <path id="Path_4165" data-name="Path 4165" d="M273.456,31a4.381,4.381,0,0,1,.228,1.111,7.65,7.65,0,0,0,.125.781,11.569,11.569,0,0,0,.04,1.334,1.926,1.926,0,0,0,.114.376,3.805,3.805,0,0,1,.137,1.265c.011.154.137.245.205.365-.114.217-.228.427-.336.644a.891.891,0,0,1-.393-.792,3.506,3.506,0,0,0-.086-1.066,9.815,9.815,0,0,1-.274-2.115,6.09,6.09,0,0,0-.217-1.14C273.08,31.462,273.143,31.16,273.456,31Z" transform="translate(-257.497 -29.347)" fill="#fff"/>
  <path id="Path_4166" data-name="Path 4166" d="M266.362,43.919a2.824,2.824,0,0,1,.251,1.2,12.782,12.782,0,0,1,.1,1.613c-.023.142.148.251.165.41a6.214,6.214,0,0,1,.068,1.174c-.028.3.217.49.325.735a5.492,5.492,0,0,1-.439.8.444.444,0,0,1-.1-.467.374.374,0,0,0-.023-.331,2.343,2.343,0,0,1-.239-1.094c-.023-.211-.171-.427.04-.627.023-.023-.006-.131-.04-.182a2.981,2.981,0,0,1-.3-1.311,4.271,4.271,0,0,1-.011-.809c0-.142.006-.217-.16-.211-.068.006-.1-.046-.1-.108v-.057a2.147,2.147,0,0,1,.251-.587C266.2,43.993,266.236,43.891,266.362,43.919Z" transform="translate(-250.802 -41.526)" fill="#fff"/>
  <path id="Path_4167" data-name="Path 4167" d="M291.9,498.757a11.049,11.049,0,0,1,1.02-1.63c.319-.365.5-.8.826-1.163.279-.3.439-.747.7-1.083a18.174,18.174,0,0,1,1.385-2.069,4.582,4.582,0,0,0,.353-.576,2.08,2.08,0,0,1,.3-.336.444.444,0,0,1,.108.234,20.521,20.521,0,0,1-1.14,1.755c-.348.479-.65,1-.969,1.5-.359.564-.735,1.117-1.123,1.664-.331.467-.638.958-.94,1.448a1.016,1.016,0,0,1-.342.37A.258.258,0,0,1,291.9,498.757Z" transform="translate(-275.32 -463.978)" fill="#fff"/>
  <path id="Path_4168" data-name="Path 4168" d="M264.57,5.525c-.234.194-.256.524-.456.741a1.249,1.249,0,0,1,.046-.826,6.794,6.794,0,0,0,.063-1.077,2.993,2.993,0,0,1,.068-.445A.785.785,0,0,0,264,3.2c.57.051,1.14.011,1.71.1-.04.114-.08.228-.114.342a5.166,5.166,0,0,0-.627,1.14A2.034,2.034,0,0,0,264.57,5.525Z" transform="translate(-249.01 -3.132)" fill="#fff"/>
  <path id="Path_4169" data-name="Path 4169" d="M47.083,1010.552a13.277,13.277,0,0,0-.091,1.778c-.04.348.12.678.028,1.02a3.846,3.846,0,0,1-1.02-.524c.353-.006.313-.017.308-.382a4.774,4.774,0,0,1,.006-1.242,4.046,4.046,0,0,0-.051-.866c.006-.2,0-.4.2-.536C46.667,1010.056,46.878,1010.307,47.083,1010.552Z" transform="translate(-43.435 -952.36)" fill="#fff"/>
  <path id="Path_4170" data-name="Path 4170" d="M510.8,450c.348-.2.667-.445,1-.673.576-.4,1.174-.764,1.773-1.14.063-.04.171-.148.205.04a2.116,2.116,0,0,1-.228.741c-.376.171-.673.467-1.037.661a17.294,17.294,0,0,1-1.471.935A2.585,2.585,0,0,1,510.8,450Z" transform="translate(-481.744 -422.692)" fill="#fff"/>
  <path id="Path_4171" data-name="Path 4171" d="M323.516,9.284c-.222-.142-.12-.37-.137-.564-.034-.336.12-.684.017-1a2.934,2.934,0,0,1-.177-.912c0-.234-.12-.479,0-.712a4.174,4.174,0,0,1,.8.051.767.767,0,0,1,.08.433,3.97,3.97,0,0,0,.171,1.243.179.179,0,0,1-.011.108C324.023,8.395,323.784,8.845,323.516,9.284Z" transform="translate(-304.805 -5.858)" fill="#fff"/>
  <path id="Path_4172" data-name="Path 4172" d="M646.337,945.9a1.053,1.053,0,0,1,.108.815,4.783,4.783,0,0,0,.006.5c.011.359-.017.724-.04,1.089a.548.548,0,0,0,.046.331h-1.334c-.006-.017-.023-.04-.023-.046a28.223,28.223,0,0,0,1.191-2.645C646.308,945.923,646.326,945.912,646.337,945.9Z" transform="translate(-608.389 -892.102)" fill="#fff"/>
  <path id="Path_4173" data-name="Path 4173" d="M298.186,983.031c.473,0,.946-.006,1.413.006.188.006.222-.068.245-.245a15.008,15.008,0,0,0,.011-1.961,3.084,3.084,0,0,1,.046-.331c.393.844.844,1.664,1.191,2.513-.04.034-.051.051-.063.051-1.687.006-3.374.006-5.061.011a.1.1,0,0,1-.057-.011c-.006-.006-.006-.023-.011-.04C296.664,983.036,297.427,983.031,298.186,983.031Z" transform="translate(-279.092 -924.73)" fill="#fff"/>
  <path id="Path_4174" data-name="Path 4174" d="M573.064,329.956V329.5c-.08-.182.023-.388-.057-.57v-.114c.034-.217-.08-.416-.057-.627a6.735,6.735,0,0,0,.541-.889c.074-.125.1-.319.319-.308a5.81,5.81,0,0,1,.393.855c0,.331-.274.542-.359.832-.108.388-.427.678-.507,1.083C573.315,329.9,573.184,329.933,573.064,329.956Z" transform="translate(-540.348 -308.468)" fill="#fff"/>
  <path id="Path_4175" data-name="Path 4175" d="M568.2,301.439a4.162,4.162,0,0,0-.587.946c-.074.108-.114.245-.274.257v-.114a4.257,4.257,0,0,0-.171-.969,5.8,5.8,0,0,0-.171-1.083c.16.074.188-.063.245-.154.091-.137.108-.325.268-.422A16.067,16.067,0,0,1,568.2,301.439Z" transform="translate(-534.741 -282.921)" fill="#fff"/>
  <path id="Path_4176" data-name="Path 4176" d="M220.655,216.265a.183.183,0,0,1,.108-.165,2.994,2.994,0,0,1,.348.735c-.194.074-.245.274-.348.422-.433.627-.849,1.265-1.277,1.892-.046.063-.074.188-.205.137-.085-.148.029-.274.051-.41.091-.262.234-.5.325-.764a3.8,3.8,0,0,1,.393-.809,1.516,1.516,0,0,0,.131-.314A2.647,2.647,0,0,1,220.655,216.265Z" transform="translate(-206.811 -203.897)" fill="#fff"/>
  <path id="Path_4177" data-name="Path 4177" d="M338.188,8.79A3.687,3.687,0,0,1,337.954,7h1.214C338.826,7.621,338.547,8.225,338.188,8.79Z" transform="translate(-318.747 -6.715)" fill="#fff"/>
  <path id="Path_4178" data-name="Path 4178" d="M687.448,1011.773a9.455,9.455,0,0,0,.986-.011c.313-.028.291.211.291.365s-.011.393-.3.388c-.445-.006-.884,0-1.328,0A2.154,2.154,0,0,1,687.448,1011.773Z" transform="translate(-647.995 -954.207)" fill="#fff"/>
  <path id="Path_4179" data-name="Path 4179" d="M210.267,459.139a1.9,1.9,0,0,0,.228.741,3.51,3.51,0,0,0,.285.855c.108.45.313.866.456,1.305.023.08.1.148.017.234-.5-1.049-1-2.1-1.453-3.169.085-.2.262-.12.41-.137C210.21,459.031,210.2,459.1,210.267,459.139Z" transform="translate(-197.899 -432.921)" fill="#fff"/>
  <path id="Path_4180" data-name="Path 4180" d="M412.021,904.2v10.083a.554.554,0,0,1-.046-.331v-9.49C411.976,904.377,411.924,904.274,412.021,904.2Z" transform="translate(-388.539 -852.779)" fill="#fff"/>
  <path id="Path_4181" data-name="Path 4181" d="M24.9,1029.295c.085-.262.085-.581.445-.667.1-.022.114-.142.16-.228.114.023.142.12.182.194.028.051.034.159-.057.148-.125-.011-.222-.011-.2.137.028.171.165.057.268.068-.205.234-.581.12-.752.393A.166.166,0,0,1,24.9,1029.295Z" transform="translate(-23.538 -969.9)" fill="#fff"/>
  <path id="Path_4182" data-name="Path 4182" d="M623.015,404.214c-.091.143-.028.3-.046.445-.011.1.034.211-.057.3V404.5c.017-.131-.046-.274.046-.4A.7.7,0,0,1,623.015,404.214Z" transform="translate(-587.461 -381.182)" fill="#fff"/>
  <path id="Path_4183" data-name="Path 4183" d="M424.206,874.9c.011.006.029.006.04.011a4.077,4.077,0,0,1-.046.912C424.2,875.516,424.2,875.208,424.206,874.9Z" transform="translate(-400.079 -825.149)" fill="#fff"/>
  <path id="Path_4184" data-name="Path 4184" d="M482.6,735.926c.177.011.359-.051.53.04A1.289,1.289,0,0,1,482.6,735.926Z" transform="translate(-455.151 -694.085)" fill="#fff"/>
  <path id="Path_4185" data-name="Path 4185" d="M433.7,733.911c.063-.006.125-.011.188-.011.091.029.2-.029.285.057A1.468,1.468,0,0,1,433.7,733.911Z" transform="translate(-409.038 -692.185)" fill="#fff"/>
  <path id="Path_4186" data-name="Path 4186" d="M100.436,1025.2a.282.282,0,0,1-.336,0Z" transform="translate(-94.452 -966.882)" fill="#fff"/>
  <path id="Path_4187" data-name="Path 4187" d="M212.314,146.187a3.545,3.545,0,0,1-.37.752.731.731,0,0,0-.142.388c-.205.068-.211-.1-.239-.217-.063-.308-.068-.621-.12-.929-.011-.074,0-.165-.04-.222-.3-.427-.177-.929-.251-1.4a4.579,4.579,0,0,0-.177-1,1.929,1.929,0,0,1-.063-.673,3.426,3.426,0,0,1-.074-.866c-.006-.16.16-.245.171-.4.131-.211.268-.416.4-.627a.964.964,0,0,1,.234.758c.011.735.16,1.465.148,2.2a.26.26,0,0,0,.046.188.839.839,0,0,1,.171.718c-.017.393.182.752.188,1.14A.2.2,0,0,0,212.314,146.187Z" transform="translate(-198.863 -133.078)" fill="#fff"/>
  <path id="Path_4188" data-name="Path 4188" d="M221.912,131.947c-.262.051-.16-.217-.268-.3.142-.171-.011-.325-.046-.473a2.159,2.159,0,0,1-.057-.832c.017-.108-.006-.251-.085-.279-.222-.08-.16-.274-.154-.393a3.349,3.349,0,0,0-.029-.758,14.507,14.507,0,0,1-.108-1.493,3.4,3.4,0,0,0-.165-.661,3.526,3.526,0,0,1,.456-.855c.16.262.074.53.08.809a4.688,4.688,0,0,0,.165,1.282.417.417,0,0,1,.029.245.931.931,0,0,0,.08.815,1.007,1.007,0,0,1,.1.576,1.989,1.989,0,0,0,.12.655c.063.205.034.439.114.644.04.1.011.239.165.268Q222.109,131.58,221.912,131.947Z" transform="translate(-208.461 -118.838)" fill="#fff"/>
  <path id="Path_4189" data-name="Path 4189" d="M428,1077.562v-.086c.006-.068-.023-.177.086-.177s.08.108.085.177v.086Z" transform="translate(-403.663 -1016.013)" fill="#fff"/>
  <path id="Path_4190" data-name="Path 4190" d="M165.653,250.771c-.074.182-.1.017-.12-.023-.1-.211-.211-.427-.3-.644a2.757,2.757,0,0,0-.462-.8c-.091-.108-.182-.222-.114-.382a.147.147,0,0,0-.034-.131,5.067,5.067,0,0,1-.473-1.379,4.031,4.031,0,0,0-.319-.775c-.08-.137.028-.239.017-.348a3.179,3.179,0,0,0-.142-.49,3.425,3.425,0,0,1-.1-2.274c.08-.205-.011-.467.217-.621a.208.208,0,0,1,.125.234c-.006.274.074.547.063.821s.171.513.188.792a12.952,12.952,0,0,0,.479,2.12c.08.342.3.61.388.935.074.274.171.541.245.809a2.741,2.741,0,0,0,.359.787A12.244,12.244,0,0,1,165.653,250.771Z" transform="translate(-154.197 -229.17)" fill="#fff"/>
  <path id="Path_4191" data-name="Path 4191" d="M174.727,225.668c-.12.074.023.205-.057.285-.1.023-.142-.046-.165-.114a4.015,4.015,0,0,1-.279-.712.618.618,0,0,0-.131-.313,2.434,2.434,0,0,1-.467-1.459.6.6,0,0,0-.12-.313.487.487,0,0,1-.1-.291.939.939,0,0,0-.154-.564.582.582,0,0,1-.034-.416,1.2,1.2,0,0,0-.08-.587,2.144,2.144,0,0,1-.114-1.385v-.171c.182-.171.182-.445.342-.627.154.029.1.148.1.239a8.858,8.858,0,0,0,.074,1.4.921.921,0,0,0,.108.319.449.449,0,0,1,.1.348,3.5,3.5,0,0,0,.046.844,2.015,2.015,0,0,0,.268.735c.023.051.085.091.085.143a4.137,4.137,0,0,0,.319,1.225,5.642,5.642,0,0,0,.319.9A1.3,1.3,0,0,0,174.727,225.668Z" transform="translate(-163.156 -206.632)" fill="#fff"/>
  <path id="Path_4192" data-name="Path 4192" d="M170.228,233a1.484,1.484,0,0,1,.011.633,3.009,3.009,0,0,0,.274,1.009c.046.154-.063.234-.029.365a6.258,6.258,0,0,0,.376,1.322,2.612,2.612,0,0,1,.131.758,1.418,1.418,0,0,0,.217.644,6.338,6.338,0,0,1,.559,1.277.252.252,0,0,0,.114.148v.513c-.074.1.017.239-.057.342a.418.418,0,0,1-.319-.353c-.017-.433-.359-.769-.325-1.22.011-.165-.222-.262-.274-.45a12.68,12.68,0,0,1-.393-1.522.345.345,0,0,0-.023-.137c-.222-.325-.1-.724-.217-1.054a14.715,14.715,0,0,1-.274-1.7C170.074,233.382,170.154,233.188,170.228,233Z" transform="translate(-160.368 -219.834)" fill="#fff"/>
  <path id="Path_4193" data-name="Path 4193" d="M201.94,350.342c.017-.114-.046-.239.057-.342v1.767h-.057Z" transform="translate(-190.484 -330.166)" fill="#fff"/>
  <path id="Path_4194" data-name="Path 4194" d="M594.513,510a.162.162,0,0,1,.086.234,4.262,4.262,0,0,1-.553.929.314.314,0,0,1-.046-.023A10.228,10.228,0,0,1,594.513,510Z" transform="translate(-560.201 -481.046)" fill="#fff"/>
  <path id="Path_4195" data-name="Path 4195" d="M579.228,552a.374.374,0,0,1-.228.456A1.111,1.111,0,0,1,579.228,552Z" transform="translate(-546.057 -520.652)" fill="#fff"/>
  <path id="Path_4196" data-name="Path 4196" d="M603.963,505c.051.006.125-.017.143.051s-.046.12-.1.148c-.08.04-.091-.023-.1-.08A.134.134,0,0,1,603.963,505Z" transform="translate(-569.537 -476.331)" fill="#fff"/>
  <path id="Path_4197" data-name="Path 4197" d="M590.171,532c.131.211-.063.285-.171.4A.74.74,0,0,1,590.171,532Z" transform="translate(-556.43 -501.792)" fill="#fff"/>
  <path id="Path_4198" data-name="Path 4198" d="M586.057,544c.051.034.074.086.028.137-.028.034-.063.011-.085-.023A.116.116,0,0,1,586.057,544Z" transform="translate(-552.658 -513.108)" fill="#fff"/>
  <path id="Path_4199" data-name="Path 4199" d="M565,611.8c.011-.348.291-.542.456-.8C565.445,611.348,565.148,611.53,565,611.8Z" transform="translate(-532.854 -576.29)" fill="#fff"/>
  <path id="Path_4200" data-name="Path 4200" d="M608.079,499.573c-.068.006-.08-.034-.085-.086-.006-.091.057-.131.131-.154.057-.017.086.023.08.074A.184.184,0,0,1,608.079,499.573Z" transform="translate(-573.398 -470.984)" fill="#fff"/>
  <path id="Path_4201" data-name="Path 4201" d="M573,604.41a.536.536,0,0,1,.205-.41C573.262,604.234,573.114,604.308,573,604.41Z" transform="translate(-540.398 -569.689)" fill="#fff"/>
  <path id="Path_4202" data-name="Path 4202" d="M561.417,624.9c-.006.023,0,.046-.011.057-.068.1-.006.257-.143.319-.011.006-.063-.023-.063-.034A.4.4,0,0,1,561.417,624.9Z" transform="translate(-529.271 -589.398)" fill="#fff"/>
  <path id="Path_4203" data-name="Path 4203" d="M44.042,1020.244a2.293,2.293,0,0,0-.011-.6.129.129,0,0,1,.131-.154c.125-.011.085.1.091.165A.818.818,0,0,1,44.042,1020.244Z" transform="translate(-41.574 -961.493)" fill="#fff"/>
  <path id="Path_4204" data-name="Path 4204" d="M30.209,923.985a.221.221,0,0,1,.108.011c.108.057.228.12.211.262-.011.1-.12.08-.182.045-.114-.068-.262-.137-.137-.319Z" transform="translate(-28.499 -871.435)" fill="#fff"/>
  <path id="Path_4205" data-name="Path 4205" d="M32.754,955.968c-.091-.023-.154-.063-.154-.131,0-.12.108-.159.194-.211.051-.034.1.023.091.063A.511.511,0,0,1,32.754,955.968Z" transform="translate(-30.799 -901.264)" fill="#fff"/>
  <path id="Path_4206" data-name="Path 4206" d="M33.44,963.6a.151.151,0,0,1,.131.125c.011.091-.068.125-.142.143s-.091-.057-.1-.1C33.3,963.674,33.372,963.634,33.44,963.6Z" transform="translate(-31.479 -908.793)" fill="#fff"/>
  <path id="Path_4207" data-name="Path 4207" d="M31.841,989.3c-.1-.006-.165-.046-.182-.125s.057-.091.114-.091c.08-.006.16.011.165.108C31.944,989.261,31.881,989.284,31.841,989.3Z" transform="translate(-29.909 -932.824)" fill="#fff"/>
  <path id="Path_4208" data-name="Path 4208" d="M28.5,978.4c-.063.12-.188.12-.239.211-.034.063-.1.023-.131-.034s-.023-.12.046-.131C28.281,978.423,28.378,978.417,28.5,978.4Z" transform="translate(-26.571 -922.75)" fill="#fff"/>
  <path id="Path_4209" data-name="Path 4209" d="M30.334,1018.8c.017.1.137.2,0,.279a.113.113,0,0,1-.1-.017C30.169,1018.943,30.277,1018.88,30.334,1018.8Z" transform="translate(-28.55 -960.847)" fill="#fff"/>
  <path id="Path_4210" data-name="Path 4210" d="M33.416,1003.265c-.063-.006-.131.006-.142-.068s.04-.1.1-.1.137.023.137.1S33.45,1003.254,33.416,1003.265Z" transform="translate(-31.433 -946.041)" fill="#fff"/>
  <path id="Path_4211" data-name="Path 4211" d="M29,970.033c.131-.034.228-.074.274.051a.108.108,0,0,1-.04.1C29.108,970.215,29.1,970.09,29,970.033Z" transform="translate(-27.404 -914.827)" fill="#fff"/>
  <path id="Path_4212" data-name="Path 4212" d="M36.157,1022.4a.1.1,0,0,1,.091.091c.011.051-.006.1-.068.091a.1.1,0,0,1-.08-.1C36.1,1022.44,36.111,1022.406,36.157,1022.4Z" transform="translate(-34.099 -964.242)" fill="#fff"/>
  <path id="Path_4213" data-name="Path 4213" d="M666.124,1038.1c.684,0,1.368,0,2.052.006.017.5.029,1.009.046,1.51.006.182-.131.131-.222.131-.6.006-1.208,0-1.818,0a3.77,3.77,0,0,0-.1-1.26C666.044,1038.379,666.107,1038.231,666.124,1038.1Z" transform="translate(-628.165 -979.047)" fill="#fff"/>
  <path id="Path_4214" data-name="Path 4214" d="M428.087,1020.4a.111.111,0,0,1,.12.108.091.091,0,0,1-.063.108c-.063.017-.08-.034-.091-.08A.114.114,0,0,1,428.087,1020.4Z" transform="translate(-403.705 -962.356)" fill="#fff"/>
  <path id="Path_4215" data-name="Path 4215" d="M428.151,1051.859c-.051-.006-.051-.045-.051-.08s0-.08.051-.08.051.046.051.08S428.2,1051.854,428.151,1051.859Z" transform="translate(-403.757 -991.872)" fill="#fff"/>
  <path id="Path_4216" data-name="Path 4216" d="M428.112,999.639c-.091-.074-.08-.137-.074-.239C428.118,999.48,428.163,999.537,428.112,999.639Z" transform="translate(-403.695 -942.553)" fill="#fff"/>
  <path id="Path_4217" data-name="Path 4217" d="M428.293,1010.127a1,1,0,0,0-.08.068c-.011-.023-.034-.051-.028-.063a.132.132,0,0,1,.074-.063C428.322,1010.059,428.265,1010.1,428.293,1010.127Z" transform="translate(-403.837 -952.613)" fill="#fff"/>
  <path id="Path_4218" data-name="Path 4218" d="M181.425,197.714c-.046-.011-.131-.017-.131-.028-.006-.331-.257-.576-.274-.906a.886.886,0,0,0-.142-.416.7.7,0,0,1-.125-.45c.011-.365-.239-.621-.331-.946-.017-.051-.08-.108-.068-.148.074-.3-.131-.581-.023-.878a.387.387,0,0,0-.08-.348,1.3,1.3,0,0,1-.217-.895,5.368,5.368,0,0,1,.017-1.049c.006-.023-.034-.063-.051-.1a6.5,6.5,0,0,1,.5-1.111c.046-.1.086-.211.125-.314.057-.074.114-.154.171-.228a1.194,1.194,0,0,1,.143.764,5.677,5.677,0,0,0,.228,1.351c.051.211.171.416.063.655-.074.165.063.325.091.49a2.328,2.328,0,0,0,.1.519,7.166,7.166,0,0,1,.336,1.379,1.405,1.405,0,0,1,.063.308.176.176,0,0,0,.114.177c-.217.621-.313,1.277-.49,1.915A1.294,1.294,0,0,0,181.425,197.714Z" transform="translate(-169.798 -179.191)" fill="#fff"/>
  <path id="Path_4219" data-name="Path 4219" d="M195.046,178.731c-.131.057-.239.074-.188-.125a.387.387,0,0,0-.034-.245c-.091-.239-.251-.467-.074-.741.029-.046-.029-.205-.091-.251-.245-.182-.182-.439-.217-.684a3.215,3.215,0,0,0-.165-.61c-.017-.046-.08-.074-.051-.142a.938.938,0,0,0-.1-.838,3.291,3.291,0,0,1-.131-.769c-.063-.4-.063-.821-.091-1.231.068-.313.342-.536.4-.855.04-.091.04-.222.2-.154a9.877,9.877,0,0,1,.262,2.189,1.465,1.465,0,0,0,.171.769.753.753,0,0,1,.1.41,1.1,1.1,0,0,0,.182.809c.011.011.023.04.017.051-.108.4.143.707.268,1.049-.04.131-.074.268-.114.4A7.211,7.211,0,0,0,195.046,178.731Z" transform="translate(-182.906 -162.373)" fill="#fff"/>
  <path id="Path_4220" data-name="Path 4220" d="M200.446,170.114l-.171.171c-.12-.2.029-.239.171-.285h0A.081.081,0,0,1,200.446,170.114Z" transform="translate(-188.875 -160.425)" fill="#fff"/>
  <path id="Path_4221" data-name="Path 4221" d="M573.9,361c.114.182.028.382.057.57C573.841,361.388,573.921,361.188,573.9,361Z" transform="translate(-541.239 -340.539)" fill="#fff"/>
  <path id="Path_4222" data-name="Path 4222" d="M204,159.741v-.114c.131-.211.268-.416.4-.627a3.411,3.411,0,0,1,.16,1.123,2.1,2.1,0,0,0,.068.467,5.449,5.449,0,0,1,.182,1.55.849.849,0,0,0,.16.6c.171.222.125.541.165.815.028.194.04.393.063.587a.16.16,0,0,0,.165.16c-.114.245-.228.5-.342.741-.217-.279-.467-.547-.325-.946a.205.205,0,0,0-.08-.228.53.53,0,0,1-.137-.564.744.744,0,0,0-.068-.49,3.134,3.134,0,0,1-.205-1.146,3.751,3.751,0,0,0-.125-1.174A2.956,2.956,0,0,1,204,159.741Z" transform="translate(-192.43 -150.052)" fill="#fff"/>
</svg>
