<?xml version="1.0" encoding="UTF-8"?>
<!DOCTYPE svg PUBLIC "-//W3C//DTD SVG 1.1//EN" "http://www.w3.org/Graphics/SVG/1.1/DTD/svg11.dtd">
<!-- Creator: CorelDRAW 2019 (64-Bit) -->
<svg xmlns="http://www.w3.org/2000/svg" xml:space="preserve" width="0.511in" height="0.511in" version="1.1" style="shape-rendering:geometricPrecision; text-rendering:geometricPrecision; image-rendering:optimizeQuality; fill-rule:evenodd; clip-rule:evenodd"
viewBox="0 0 508.68 508.68"
 xmlns:xlink="http://www.w3.org/1999/xlink"
 xmlns:xodm="http://www.corel.com/coreldraw/odm/2003">
 <defs>
  <style type="text/css">
   <![CDATA[
    .fil3 {fill:none}
    .fil4 {fill:#FEFEFE}
    .fil0 {fill:#0057D9}
    .fil1 {fill:#0068FF}
    .fil5 {fill:#08216E}
    .fil2 {fill:url(#id3)}
   ]]>
  </style>
    <clipPath id="id0">
     <path d="M254.34 0c140.47,0 254.34,113.87 254.34,254.34 0,140.47 -113.87,254.34 -254.34,254.34 -140.47,0 -254.34,-113.87 -254.34,-254.34 0,-140.47 113.87,-254.34 254.34,-254.34z"/>
    </clipPath>
      <mask id="id1">
  <linearGradient id="id2" gradientUnits="userSpaceOnUse" x1="53.83" y1="46.4" x2="159.05" y2="184.11">
   <stop offset="0" style="stop-opacity:1; stop-color:white"/>
   <stop offset="1" style="stop-opacity:0; stop-color:white"/>
  </linearGradient>
       <rect style="fill:url(#id2)" x="7.45" y="7.45" width="493.77" height="493.77"/>
      </mask>
  <linearGradient id="id3" gradientUnits="userSpaceOnUse" x1="183.58" y1="57.51" x2="354.09" y2="405.17">
   <stop offset="0" style="stop-opacity:1; stop-color:#0021E3"/>
   <stop offset="1" style="stop-opacity:1; stop-color:#0068FF"/>
  </linearGradient>
 </defs>
 <g id="Layer_x0020_1">
  <metadata id="CorelCorpID_0Corel-Layer"/>
  <g id="_1746231988208">
   <path class="fil0" d="M254.34 0c140.47,0 254.34,113.87 254.34,254.34 0,140.47 -113.87,254.34 -254.34,254.34 -140.47,0 -254.34,-113.87 -254.34,-254.34 0,-140.47 113.87,-254.34 254.34,-254.34z"/>
   <g style="clip-path:url(#id0)">
    <g>
     <path id="1" class="fil1" style="mask:url(#id1)" d="M254.34 10.91c134.44,0 243.43,108.99 243.43,243.43 0,134.44 -108.99,243.43 -243.43,243.43 -134.44,0 -243.43,-108.99 -243.43,-243.43 0,-134.44 108.99,-243.43 243.43,-243.43zm0 60.43c101.07,0 183,81.93 183,183 0,101.07 -81.93,183 -183,183 -101.07,0 -183,-81.93 -183,-183 0,-101.07 81.93,-183 183,-183z"/>
     <path class="fil2" d="M254.34 53.91c110.69,0 200.43,89.74 200.43,200.43 0,110.69 -89.74,200.43 -200.43,200.43 -110.69,0 -200.43,-89.74 -200.43,-200.43 0,-110.69 89.74,-200.43 200.43,-200.43zm0 14.06c102.93,0 186.37,83.44 186.37,186.37 0,102.93 -83.44,186.37 -186.37,186.37 -102.93,0 -186.37,-83.44 -186.37,-186.37 0,-102.93 83.44,-186.37 186.37,-186.37z"/>
    </g>
   </g>
   <path class="fil3" d="M254.34 0c140.47,0 254.34,113.87 254.34,254.34 0,140.47 -113.87,254.34 -254.34,254.34 -140.47,0 -254.34,-113.87 -254.34,-254.34 0,-140.47 113.87,-254.34 254.34,-254.34z"/>
   <g>
    <g>
     <g>
      <path class="fil4" d="M271.5 347.44l-67.91 -148.37 39.3 -73.96 -36.51 -1.86c0,0 -14.19,-2.09 -22.09,9.54 -7.91,11.63 -30.24,53.96 -30.24,53.96 0,0 -4.65,12.33 3.72,27.44l49.07 107.44c0,0 6.98,21.4 27.91,23.95l36.75 1.86z"/>
      <path class="fil4" d="M237.18 161.24l67.91 148.37 -39.3 73.96 36.51 1.86c0,0 14.19,2.09 22.09,-9.54 7.91,-11.63 30.24,-53.95 30.24,-53.95 0,0 4.65,-12.33 -3.72,-27.45l-49.07 -107.44c0,0 -6.98,-21.4 -27.91,-23.95l-36.75 -1.86z"/>
     </g>
    </g>
   </g>
   <path class="fil5" d="M74.02 259.46c0,-102.93 83.44,-186.37 186.37,-186.37 44.43,0 85.23,15.55 117.26,41.5 -32.86,-29.01 -76.03,-46.62 -123.31,-46.62 -102.93,0 -186.37,83.44 -186.37,186.37 0,58.5 26.95,110.7 69.11,144.87 -38.67,-34.15 -63.06,-84.1 -63.06,-139.75z"/>
  </g>
 </g>
</svg>
