<?xml version="1.0" encoding="UTF-8"?>
<svg xmlns="http://www.w3.org/2000/svg" xmlns:xlink="http://www.w3.org/1999/xlink" width="16px" height="16px" viewBox="0 0 16 15" version="1.1">
<g id="surface1">
<path style=" stroke:none;fill-rule:nonzero;fill:rgb(100%,100%,100%);fill-opacity:1;" d="M 13.804688 3.5625 L 1.480469 3.5625 L 1.480469 3.082031 L 12.324219 2.246094 L 12.324219 3.082031 L 13.800781 3.082031 L 13.800781 1.65625 C 13.820312 1.171875 13.609375 0.707031 13.230469 0.390625 C 12.851562 0.0703125 12.34375 -0.0625 11.851562 0.0195312 L 1.953125 1.386719 C 0.847656 1.570312 0.03125 2.480469 0 3.5625 L 0 13.09375 C 0 14.144531 0.882812 15 1.972656 15 L 13.800781 15 C 14.890625 15 15.773438 14.144531 15.773438 13.09375 L 15.773438 5.46875 C 15.773438 4.417969 14.890625 3.5625 13.804688 3.5625 Z M 12.324219 10.242188 C 11.507812 10.242188 10.84375 9.601562 10.84375 8.8125 C 10.84375 8.019531 11.507812 7.382812 12.324219 7.382812 C 13.140625 7.382812 13.804688 8.019531 13.804688 8.8125 C 13.804688 9.601562 13.140625 10.242188 12.324219 10.242188 Z M 12.324219 10.242188 "/>
</g>
</svg>
