<svg id="Icon" xmlns="http://www.w3.org/2000/svg" width="66.017" height="61" viewBox="0 0 66.017 61">
  <path id="Path_203" data-name="Path 203" d="M240.58,81.55a1.848,1.848,0,1,1-.557,3.018,1.879,1.879,0,0,1,.557-3.018" transform="translate(-208.381 -81.37)" fill="#fff"/>
  <path id="Path_204" data-name="Path 204" d="M155.482,91.193a1.451,1.451,0,1,1-.171,2.7,1.465,1.465,0,0,1,.171-2.7" transform="translate(-138.759 -89.344)" fill="#fff"/>
  <path id="Path_205" data-name="Path 205" d="M330.01,93.608a1.446,1.446,0,0,1-.267-2.745c1.02-.5,1.956.435,2.105,1.4a1.586,1.586,0,0,1-1.838,1.343" transform="translate(-281.591 -89.033)" fill="#fff"/>
  <path id="Path_206" data-name="Path 206" d="M174.239,126.664a2.239,2.239,0,1,1-.315,3.7,2.259,2.259,0,0,1,.315-3.7" transform="translate(-153.995 -118.228)" fill="#fff"/>
  <path id="Path_207" data-name="Path 207" d="M301.789,127.581a2.259,2.259,0,0,1,4.036-.1,2.37,2.37,0,0,1-1.476,3.282,2.335,2.335,0,0,1-2.56-3.186" transform="translate(-259.237 -118.165)" fill="#fff"/>
  <path id="Path_208" data-name="Path 208" d="M235.2,138.662a2.779,2.779,0,0,1,2.674-2.619,2.936,2.936,0,0,1,2.293,1.489,2.637,2.637,0,0,1-1.234,3.594,3.5,3.5,0,0,1-1.967.171,2.861,2.861,0,0,1-1.766-2.635" transform="translate(-204.86 -126.154)" fill="#fff"/>
  <path id="Path_209" data-name="Path 209" d="M103.531,161.1a1.847,1.847,0,1,1-.3,3.091,1.872,1.872,0,0,1,.3-3.091" transform="translate(-96.212 -146.487)" fill="#fff"/>
  <path id="Path_210" data-name="Path 210" d="M377.581,160.652a1.841,1.841,0,1,1,.2,3.175,1.841,1.841,0,0,1-.2-3.175" transform="translate(-320.839 -146.043)" fill="#fff"/>
  <path id="Path_211" data-name="Path 211" d="M257.126,175.421a4.463,4.463,0,1,1-2.762,5.794,4.482,4.482,0,0,1,2.762-5.794" transform="translate(-220.318 -158.216)" fill="#fff"/>
  <path id="Path_212" data-name="Path 212" d="M198.811,175.868a4.461,4.461,0,1,1-2.079,6.036,4.5,4.5,0,0,1,2.079-6.036" transform="translate(-172.969 -158.441)" fill="#fff"/>
  <path id="Path_213" data-name="Path 213" d="M149.48,188.093a2.8,2.8,0,0,1,2.687-2.293,2.96,2.96,0,0,1,2.611,2.613,2.784,2.784,0,0,1-2.6,2.7,2.617,2.617,0,0,1-2.695-3.023" transform="translate(-134.618 -166.912)" fill="#fff"/>
  <path id="Path_214" data-name="Path 214" d="M322.64,186a2.632,2.632,0,1,1-.2,4.554,2.65,2.65,0,0,1,.2-4.554" transform="translate(-275.348 -166.823)" fill="#fff"/>
  <path id="Path_215" data-name="Path 215" d="M170.671,225.653a4.459,4.459,0,1,1-2.872,6.223,4.5,4.5,0,0,1,2.872-6.223" transform="translate(-149.291 -199.434)" fill="#fff"/>
  <path id="Path_216" data-name="Path 216" d="M286.326,225.492a4.465,4.465,0,1,1-2.631,6.4,4.51,4.51,0,0,1,2.631-6.4" transform="translate(-244.148 -199.283)" fill="#fff"/>
  <path id="Path_217" data-name="Path 217" d="M110.566,237.969a2.257,2.257,0,0,1,2.824,2.846,2.232,2.232,0,0,1-3.611.947,2.259,2.259,0,0,1,.787-3.793" transform="translate(-101.532 -209.542)" fill="#fff"/>
  <path id="Path_218" data-name="Path 218" d="M365.915,239.654a2.537,2.537,0,0,1,2.366-2.666,2.377,2.377,0,0,1,2.15,2.332,2.239,2.239,0,0,1-3.254,1.975,3.022,3.022,0,0,1-1.262-1.641" transform="translate(-311.939 -208.841)" fill="#fff"/>
  <path id="Path_219" data-name="Path 219" d="M68.381,242.479A1.452,1.452,0,1,1,67.8,244.7,1.477,1.477,0,0,1,68.381,242.479Z" transform="translate(-67.5 -213.245)" fill="#fff"/>
  <path id="Path_220" data-name="Path 220" d="M417.1,241.823a1.439,1.439,0,0,1,2.108.68,1.417,1.417,0,0,1-1.4,1.973c-1.416.129-1.874-2.029-.705-2.653" transform="translate(-353.327 -212.614)" fill="#fff"/>
  <path id="Path_221" data-name="Path 221" d="M199.932,275.579a4.459,4.459,0,1,1-3.471,4.3,4.511,4.511,0,0,1,3.471-4.3" transform="translate(-173.134 -240.35)" fill="#fff"/>
  <path id="Path_222" data-name="Path 222" d="M257.674,275.462a4.465,4.465,0,1,1-3.266,3.3,4.487,4.487,0,0,1,3.266-3.3" transform="translate(-220.481 -240.238)" fill="#fff"/>
  <path id="Path_223" data-name="Path 223" d="M151.986,285.172a2.631,2.631,0,1,1-1.636,4.34,2.651,2.651,0,0,1,1.636-4.34" transform="translate(-134.836 -248.284)" fill="#fff"/>
  <path id="Path_224" data-name="Path 224" d="M323.2,284.971a2.629,2.629,0,1,1-.5,4.69,2.635,2.635,0,0,1,.5-4.69" transform="translate(-275.564 -248.001)" fill="#fff"/>
  <path id="Path_225" data-name="Path 225" d="M377.155,321.3a1.832,1.832,0,0,1,1.858-2.568,2.266,2.266,0,0,1,1.551.95c.087.711.233,1.559-.357,2.107a1.834,1.834,0,0,1-3.052-.489" transform="translate(-320.999 -275.783)" fill="#fff"/>
  <path id="Path_226" data-name="Path 226" d="M103.79,319.465a1.859,1.859,0,0,1,2.757,1.863,1.85,1.85,0,1,1-2.757-1.863" transform="translate(-96.475 -276.182)" fill="#fff"/>
  <path id="Path_227" data-name="Path 227" d="M236.418,334.709a2.624,2.624,0,1,1-.489,4.661,2.654,2.654,0,0,1,.489-4.661" transform="translate(-204.506 -288.731)" fill="#fff"/>
  <path id="Path_228" data-name="Path 228" d="M174.635,349.3a2.23,2.23,0,0,1,3.125,2.085,2.2,2.2,0,0,1-2.462,2.175,2.2,2.2,0,0,1-.663-4.259" transform="translate(-154.116 -300.669)" fill="#fff"/>
  <path id="Path_229" data-name="Path 229" d="M303.363,349.082a2.241,2.241,0,1,1-.264,3.755,2.259,2.259,0,0,1,.264-3.755" transform="translate(-259.766 -300.425)" fill="#fff"/>
  <path id="Path_230" data-name="Path 230" d="M329.669,394.659a1.58,1.58,0,0,1,1.144-2.338c.829.169,1.706.792,1.532,1.754a1.474,1.474,0,0,1-2.675.584" transform="translate(-282.059 -336.08)" fill="#fff"/>
  <path id="Path_231" data-name="Path 231" d="M154.6,394.508c.253-.761.865-1.518,1.762-1.32a1.459,1.459,0,0,1,.551,2.669,1.563,1.563,0,0,1-2.313-1.349" transform="translate(-138.844 -336.763)" fill="#fff"/>
  <path id="Path_232" data-name="Path 232" d="M239.091,399.478a1.83,1.83,0,0,1,2.67-1.076c.635.273.821.983.984,1.587-.087.315-.165.629-.242.944a2.078,2.078,0,0,1-1.554.916,1.83,1.83,0,0,1-1.858-2.371" transform="translate(-207.969 -340.859)" fill="#fff"/>
</svg>
