<svg id="_7356350041556105326" data-name="7356350041556105326" xmlns="http://www.w3.org/2000/svg" width="20" height="20" viewBox="0 0 20 20">
  <path id="Path_4424" data-name="Path 4424" d="M10,20A10,10,0,1,0,0,10,10,10,0,0,0,10,20Z" fill="#727272" fill-rule="evenodd"/>
  <path id="Path_4425" data-name="Path 4425" d="M9.581,13.21a.535.535,0,0,0-.168-.446L8.168,11.229V11h3.866l2.988,6.706L17.648,11h3.685v.229l-1.064,1.044a.322.322,0,0,0-.118.306v7.674a.322.322,0,0,0,.118.306L21.308,21.6v.229H16.08V21.6l1.077-1.07c.106-.108.106-.14.106-.306v-6.2l-2.994,7.783h-.4l-3.486-7.783v5.216a.73.73,0,0,0,.193.6l1.4,1.739v.229H8v-.229L9.4,19.84a.7.7,0,0,0,.181-.6Z" transform="translate(-4.667 -6.417)" fill="#fff"/>
</svg>
