<svg xmlns="http://www.w3.org/2000/svg" width="25" height="20" viewBox="0 0 25 20">
  <path id="Path_4423" data-name="Path 4423" d="M25,2.368a10.376,10.376,0,0,1-2.945.795A5.092,5.092,0,0,0,24.311.369a10.409,10.409,0,0,1-3.258,1.225A5.16,5.16,0,0,0,17.309,0,5.089,5.089,0,0,0,12.18,5.048,4.971,4.971,0,0,0,12.312,6.2,14.638,14.638,0,0,1,1.741.923a4.958,4.958,0,0,0-.695,2.539,5.028,5.028,0,0,0,2.28,4.2A5.164,5.164,0,0,1,1,7.032V7.1a5.073,5.073,0,0,0,4.114,4.95,5.2,5.2,0,0,1-2.316.088,5.127,5.127,0,0,0,4.793,3.506A10.391,10.391,0,0,1,1.224,17.8,10.368,10.368,0,0,1,0,17.731,14.682,14.682,0,0,0,7.861,20a14.377,14.377,0,0,0,14.6-14.366c0-.219-.006-.436-.015-.653A10.323,10.323,0,0,0,25,2.368Zm0,0" fill="#727272"/>
</svg>
