<svg id="Twitter" xmlns="http://www.w3.org/2000/svg" width="27.071" height="27.071" viewBox="0 0 27.071 27.071">
  <ellipse id="Ellipse_256" data-name="Ellipse 256" cx="13.536" cy="13.535" rx="13.536" ry="13.535" transform="translate(0 0)" fill="#fff"/>
  <path id="Path_270" data-name="Path 270" d="M43.675,16.536A10.361,10.361,0,0,0,54.128,6.082v-.5a8.093,8.093,0,0,0,1.792-1.892,8.265,8.265,0,0,1-2.091.6A3.873,3.873,0,0,0,55.423,2.3a9.132,9.132,0,0,1-2.29.9A3.556,3.556,0,0,0,50.445,2a3.74,3.74,0,0,0-3.684,3.684,1.941,1.941,0,0,0,.1.8A10.293,10.293,0,0,1,39.294,2.6a3.813,3.813,0,0,0-.5,1.892,3.956,3.956,0,0,0,1.593,3.086,3.356,3.356,0,0,1-1.692-.5h0a3.639,3.639,0,0,0,2.987,3.584,3.069,3.069,0,0,1-1,.1,1.694,1.694,0,0,1-.7-.1,3.772,3.772,0,0,0,3.485,2.589,7.517,7.517,0,0,1-4.58,1.593,2.756,2.756,0,0,1-.9-.1,9.4,9.4,0,0,0,5.675,1.792" transform="translate(-32.62 5.048)" fill="#0080ff" fill-rule="evenodd"/>
</svg>
