<svg xmlns="http://www.w3.org/2000/svg" width="979.273" height="919.101" viewBox="0 0 979.273 919.101">
  <g id="Illusttration" transform="translate(-19.733 287.634)">
    <g id="Illustration" transform="translate(0 0)">
      <rect id="Rectangle_1133" data-name="Rectangle 1133" width="2.467" height="131.967" transform="translate(820.171 144.3)" fill="#3f3d56" stroke="#707070" stroke-width="3"/>
      <rect id="Rectangle_1134" data-name="Rectangle 1134" width="2.467" height="116.118" transform="translate(820.171 315.549)" fill="#3f3d56" stroke="#707070" stroke-width="3"/>
      <rect id="Rectangle_1135" data-name="Rectangle 1135" width="191.167" height="2.467" transform="translate(635.171 450.167)" fill="#3f3d56" stroke="#707070" stroke-width="3"/>
      <rect id="Rectangle_1136" data-name="Rectangle 1136" width="2.467" height="104.833" transform="translate(905.271 483.467)" fill="#3f3d56" stroke="#707070" stroke-width="3"/>
      <rect id="Rectangle_1137" data-name="Rectangle 1137" width="289.833" height="2.467" transform="translate(595.704 606.8)" fill="#3f3d56" stroke="#707070" stroke-width="3"/>
      <path id="Path_3592" data-name="Path 3592" d="M623.247,551.052" transform="translate(-47.276 37.248)" fill="none" stroke="#3f3d56" stroke-miterlimit="10" stroke-width="3"/>
      <path id="Path_3593" data-name="Path 3593" d="M623.247,469.052" transform="translate(-47.276 18.115)" fill="none" stroke="#3f3d56" stroke-miterlimit="10" stroke-width="2"/>
      <rect id="Rectangle_1138" data-name="Rectangle 1138" width="2.467" height="124.567" transform="translate(353.971 60.433)" fill="#3f3d56" stroke="#707070" stroke-width="3"/>
      <rect id="Rectangle_1149" data-name="Rectangle 1149" width="2.467" height="124.567" transform="translate(576.013 -113.167)" fill="#3f3d56" stroke="#707070" stroke-width="3"/>
      <rect id="Rectangle_1139" data-name="Rectangle 1139" width="181.342" height="2.467" transform="translate(374.937 204.734)" fill="#3f3d56" stroke="#707070" stroke-width="3"/>
      <rect id="Rectangle_1148" data-name="Rectangle 1148" width="181.342" height="2.467" transform="translate(376.171 31.133)" fill="#3f3d56" stroke="#707070" stroke-width="3"/>
      <rect id="Rectangle_1140" data-name="Rectangle 1140" width="2.467" height="166.5" transform="translate(574.737 224.467)" fill="#3f3d56" stroke="#707070" stroke-width="3"/>
      <path id="Path_3594" data-name="Path 3594" d="M428.214,338.985a20.967,20.967,0,1,0-20.967-20.967A20.967,20.967,0,0,0,428.214,338.985Zm0-39.467a18.5,18.5,0,1,1-18.5,18.5A18.5,18.5,0,0,1,428.214,299.519Z" transform="translate(393.191 -22.019)" fill="#3f3d56"/>
      <path id="Path_3595" data-name="Path 3595" d="M360.214,591.985a20.967,20.967,0,1,0-20.967-20.967,20.967,20.967,0,0,0,20.967,20.967Zm0-39.467a18.5,18.5,0,1,1-18.5,18.5,18.5,18.5,0,0,1,18.5-18.5Z" transform="translate(545.057 37.015)" fill="#3f3d56"/>
      <circle id="Ellipse_261" data-name="Ellipse 261" cx="19.733" cy="19.733" r="19.733" transform="translate(800.437 431.667)" fill="#0080ff"/>
      <rect id="Rectangle_1144" data-name="Rectangle 1144" width="170.2" height="2.467" transform="translate(76.47 606.801)" fill="#3f3d56" stroke="#707070" stroke-width="3"/>
      <rect id="Rectangle_1150" data-name="Rectangle 1150" width="170.2" height="2.467" transform="translate(519.239 -265.434)" fill="#3f3d56" stroke="#707070" stroke-width="3"/>
      <rect id="Rectangle_1145" data-name="Rectangle 1145" width="2.467" height="104.833" transform="translate(244.204 483.467)" fill="#3f3d56" stroke="#707070" stroke-width="3"/>
      <rect id="Rectangle_1151" data-name="Rectangle 1151" width="2.467" height="104.833" transform="translate(686.972 -244.467)" fill="#3f3d56" stroke="#707070" stroke-width="3"/>
      <rect id="Rectangle_1146" data-name="Rectangle 1146" width="289.833" height="2.467" transform="translate(266.404 606.8)" fill="#3f3d56"/>
      <rect id="Rectangle_1152" data-name="Rectangle 1152" width="289.833" height="2.467" transform="translate(709.172 -265.434)" fill="#3f3d56"/>
      <rect id="Rectangle_1147" data-name="Rectangle 1147" width="2.467" height="76.467" transform="translate(574.737 511.834)" fill="#3f3d56"/>
      <path id="Path_3596" data-name="Path 3596" d="M806.214,264.985a20.967,20.967,0,1,0-20.967-20.967,20.967,20.967,0,0,0,20.967,20.967Zm0-39.467a18.5,18.5,0,1,1-18.5,18.5,18.5,18.5,0,0,1,18.5-18.5Z" transform="translate(-451.01 -39.286)" fill="#3f3d56"/>
      <path id="Path_3609" data-name="Path 3609" d="M806.214,264.985a20.967,20.967,0,1,1,20.967-20.967,20.967,20.967,0,0,1-20.967,20.967Zm0-39.467a18.5,18.5,0,1,0,18.5,18.5,18.5,18.5,0,0,0-18.5-18.5Z" transform="translate(-228.968 -212.886)" fill="#3f3d56"/>
      <path id="Path_3597" data-name="Path 3597" d="M627.214,264.985a20.967,20.967,0,1,0-20.967-20.967,20.967,20.967,0,0,0,20.967,20.967Zm0-39.467a18.5,18.5,0,1,1-18.5,18.5,18.5,18.5,0,0,1,18.5-18.5Z" transform="translate(-51.243 -39.286)" fill="#3f3d56"/>
      <circle id="Ellipse_263" data-name="Ellipse 263" cx="19.733" cy="19.733" r="19.733" transform="translate(226.937 588.3)" fill="#0080ff"/>
      <ellipse id="Ellipse_266" data-name="Ellipse 266" cx="19.733" cy="19.733" rx="19.733" ry="19.733" transform="translate(669.706 -283.934)" fill="#0080ff"/>
      <path id="Path_3599" data-name="Path 3599" d="M627.214,591.985a20.967,20.967,0,1,0-20.967-20.967,20.967,20.967,0,0,0,20.967,20.967Zm0-39.467a18.5,18.5,0,1,1-18.5,18.5,18.5,18.5,0,0,1,18.5-18.5Z" transform="translate(-51.243 37.015)" fill="#3f3d56"/>
      <path id="Path_3601" data-name="Path 3601" d="M360.914,416.052a24.667,24.667,0,1,1-24.667,24.667A24.667,24.667,0,0,1,360.914,416.052Zm0,7.4a7.4,7.4,0,1,0,7.4,7.4,7.4,7.4,0,0,0-7.4-7.4Zm0,35.624a17.97,17.97,0,0,0,14.8-7.9c-.119-4.933-9.867-7.649-14.8-7.649s-14.681,2.716-14.8,7.649a18,18,0,0,0,14.8,7.9Z" transform="translate(544.357 5.748)"/>
      <path id="Path_3602" data-name="Path 3602" d="M429.914,143.052a24.667,24.667,0,1,1-24.667,24.667,24.667,24.667,0,0,1,24.667-24.667Zm0,7.4a7.4,7.4,0,1,0,7.4,7.4A7.4,7.4,0,0,0,429.914,150.452Zm0,35.624a17.97,17.97,0,0,0,14.8-7.9c-.119-4.933-9.867-7.649-14.8-7.649s-14.681,2.716-14.8,7.649a18,18,0,0,0,14.8,7.9Z" transform="translate(390.257 -57.952)"/>
      <path id="Path_3603" data-name="Path 3603" d="M806.914,74.052a24.667,24.667,0,1,1-24.667,24.667,24.667,24.667,0,0,1,24.667-24.667Zm0,7.4a7.4,7.4,0,1,0,7.4,7.4A7.4,7.4,0,0,0,806.914,81.452Zm0,35.624a17.97,17.97,0,0,0,14.8-7.9c-.119-4.933-9.867-7.649-14.8-7.649s-14.681,2.716-14.8,7.649a18,18,0,0,0,14.8,7.9Z" transform="translate(-451.71 -62.952)"/>
      <path id="Path_3610" data-name="Path 3610" d="M806.914,74.052A24.667,24.667,0,1,0,831.58,98.719a24.667,24.667,0,0,0-24.667-24.667Zm0,7.4a7.4,7.4,0,1,1-7.4,7.4A7.4,7.4,0,0,1,806.914,81.452Zm0,35.624a17.97,17.97,0,0,1-14.8-7.9c.119-4.933,9.867-7.649,14.8-7.649s14.681,2.716,14.8,7.649a18,18,0,0,1-14.8,7.9Z" transform="translate(-229.668 -236.552)"/>
      <path id="Path_3604" data-name="Path 3604" d="M1036.917,293.052a24.667,24.667,0,1,1-24.667,24.667,24.667,24.667,0,0,1,24.667-24.667Zm0,7.4a7.4,7.4,0,1,0,7.4,7.4A7.4,7.4,0,0,0,1036.917,300.452Zm0,35.624a17.97,17.97,0,0,0,14.8-7.9c-.119-4.933-9.867-7.649-14.8-7.649s-14.681,2.716-14.8,7.649A18,18,0,0,0,1036.917,336.076Z" transform="translate(-791.48 144.781)"/>
      <path id="Path_3612" data-name="Path 3612" d="M1036.917,293.052a24.667,24.667,0,1,1-24.667,24.667,24.667,24.667,0,0,1,24.667-24.667Zm0,7.4a7.4,7.4,0,1,0,7.4,7.4A7.4,7.4,0,0,0,1036.917,300.452Zm0,35.624a17.97,17.97,0,0,0,14.8-7.9c-.119-4.933-9.867-7.649-14.8-7.649s-14.681,2.716-14.8,7.649A18,18,0,0,0,1036.917,336.077Z" transform="translate(-348.711 -436.385)"/>
      <path id="Path_3605" data-name="Path 3605" d="M1074.917,428.052a24.667,24.667,0,1,1-24.667,24.667A24.667,24.667,0,0,1,1074.917,428.052Zm0,7.4a7.4,7.4,0,1,0,7.4,7.4A7.4,7.4,0,0,0,1074.917,435.452Zm0,35.624a17.97,17.97,0,0,0,14.8-7.9c-.119-4.933-9.866-7.649-14.8-7.649s-14.681,2.716-14.8,7.649A18,18,0,0,0,1074.917,471.076Z" transform="translate(-1030.517 154.082)"/>
      <path id="Path_3611" data-name="Path 3611" d="M1074.917,428.052a24.667,24.667,0,1,1-24.667,24.667A24.667,24.667,0,0,1,1074.917,428.052Zm0,7.4a7.4,7.4,0,1,0,7.4,7.4A7.4,7.4,0,0,0,1074.917,435.452Zm0,35.624a17.97,17.97,0,0,0,14.8-7.9c-.119-4.933-9.866-7.649-14.8-7.649s-14.681,2.716-14.8,7.649A18,18,0,0,0,1074.917,471.077Z" transform="translate(-587.748 -715.686)"/>
    </g>
    <path id="Union_13" data-name="Union 13" d="M-938.164-2779.867a70.134,70.134,0,0,1,51.09-85.033,70.145,70.145,0,0,1,85.029,51.089,70.144,70.144,0,0,1-51.089,85.031,70.337,70.337,0,0,1-17.024,2.1A70.169,70.169,0,0,1-938.164-2779.867Z" transform="translate(1446.076 3234.673)" fill="#0080ff" stroke="#fff" stroke-width="10"/>
    <g id="Group_132" data-name="Group 132" transform="translate(525.401 390.208)">
      <g id="Group_11" data-name="Group 11" transform="translate(0 0)">
        <path id="Path_203" data-name="Path 203" d="M243.639,81.656c-2.283-1.191-5.07,1.571-3.857,3.852a2.932,2.932,0,1,0,3.857-3.852" transform="translate(-189.983 -81.37)" fill="#fff"/>
        <path id="Path_204" data-name="Path 204" d="M157.5,91.245a2.3,2.3,0,1,0,.272,4.28,2.324,2.324,0,0,0-.272-4.28" transform="translate(-79.291 -88.312)" fill="#fff"/>
        <path id="Path_205" data-name="Path 205" d="M331.779,95.3c2.167-.262,2.51-3.669.424-4.355-1.618-.789-3.1.691-3.34,2.225.339,1.31,1.436,2.509,2.916,2.13" transform="translate(-303.859 -88.04)" fill="#fff"/>
        <path id="Path_206" data-name="Path 206" d="M178.39,126.838a3.552,3.552,0,1,0,.5,5.867,3.583,3.583,0,0,0-.5-5.867" transform="translate(-105.766 -113.454)" fill="#fff"/>
        <path id="Path_207" data-name="Path 207" d="M308.393,128.339c-1.034-2.666-5.226-2.746-6.4-.151-1.164,2.019.267,4.52,2.341,5.207,2.746.513,5.355-2.456,4.062-5.055" transform="translate(-271.163 -113.399)" fill="#fff"/>
        <path id="Path_208" data-name="Path 208" d="M243.553,140.2a4.409,4.409,0,0,0-4.242-4.155c-1.444.29-3.019.905-3.638,2.362a4.184,4.184,0,0,0,1.957,5.7,5.546,5.546,0,0,0,3.121.272,4.54,4.54,0,0,0,2.8-4.181" transform="translate(-186.939 -120.354)" fill="#fff"/>
        <path id="Path_209" data-name="Path 209" d="M106.863,161.236c-2.118-1.3-4.975,1.074-4.173,3.375a2.931,2.931,0,1,0,4.173-3.375" transform="translate(-13.733 -138.053)" fill="#fff"/>
        <path id="Path_210" data-name="Path 210" d="M381.337,160.845a2.921,2.921,0,1,0-.321,5.037,2.921,2.921,0,0,0,.321-5.037" transform="translate(-366.621 -137.666)" fill="#fff"/>
        <path id="Path_211" data-name="Path 211" d="M263.374,175.56a7.08,7.08,0,1,0,4.383,9.192,7.111,7.111,0,0,0-4.383-9.192" transform="translate(-217.029 -148.262)" fill="#fff"/>
        <path id="Path_212" data-name="Path 212" d="M206.379,176.108a7.078,7.078,0,1,0,3.3,9.576,7.138,7.138,0,0,0-3.3-9.576" transform="translate(-142.637 -148.458)" fill="#fff"/>
        <path id="Path_213" data-name="Path 213" d="M157.843,189.438a4.449,4.449,0,0,0-4.263-3.638,4.7,4.7,0,0,0-4.142,4.146c.143,2.176,1.824,4.3,4.129,4.288a4.152,4.152,0,0,0,4.276-4.8" transform="translate(-76.68 -155.832)" fill="#fff"/>
        <path id="Path_214" data-name="Path 214" d="M327.352,186.183a4.175,4.175,0,1,0,.312,7.226,4.2,4.2,0,0,0-.312-7.226" transform="translate(-297.643 -155.755)" fill="#fff"/>
        <path id="Path_215" data-name="Path 215" d="M176.264,225.74a7.073,7.073,0,0,0-6.448,12.2c3.259,3.032,9.27,1.814,11-2.322a7.118,7.118,0,0,0-4.557-9.873" transform="translate(-105.441 -184.141)" fill="#fff"/>
        <path id="Path_216" data-name="Path 216" d="M292.293,225.594a7.084,7.084,0,1,0,4.174,10.152,7.155,7.155,0,0,0-4.174-10.152" transform="translate(-254.47 -184.01)" fill="#fff"/>
        <path id="Path_217" data-name="Path 217" d="M113.753,238.043c-2.631-1-5.547,1.908-4.481,4.516a3.541,3.541,0,0,0,5.73,1.5,3.584,3.584,0,0,0-1.249-6.019" transform="translate(-23.343 -192.94)" fill="#fff"/>
        <path id="Path_218" data-name="Path 218" d="M373.086,241.218a4.025,4.025,0,0,0-3.754-4.23c-1.8.285-3.554,1.739-3.411,3.7-.165,2.59,2.957,4.351,5.163,3.134a4.8,4.8,0,0,0,2-2.6" transform="translate(-353.98 -192.331)" fill="#fff"/>
        <path id="Path_219" data-name="Path 219" d="M70.723,242.546a2.3,2.3,0,1,0,.923,3.531A2.344,2.344,0,0,0,70.723,242.546Z" transform="translate(32.622 -196.164)" fill="#fff"/>
        <path id="Path_220" data-name="Path 220" d="M419.994,241.957a2.283,2.283,0,0,0-3.344,1.079,2.247,2.247,0,0,0,2.225,3.13c2.247.2,2.973-3.219,1.119-4.209" transform="translate(-416.439 -195.614)" fill="#fff"/>
        <path id="Path_221" data-name="Path 221" d="M205.138,275.653a7.075,7.075,0,1,0,5.507,6.818,7.157,7.157,0,0,0-5.507-6.818" transform="translate(-142.912 -219.758)" fill="#fff"/>
        <path id="Path_222" data-name="Path 222" d="M263.039,275.547a7.084,7.084,0,1,0,5.182,5.228,7.118,7.118,0,0,0-5.182-5.228" transform="translate(-217.306 -219.66)" fill="#fff"/>
        <path id="Path_223" data-name="Path 223" d="M154.469,285.19c-2.925-.5-5.667,2.764-4.481,5.542a4.185,4.185,0,0,0,7.076,1.345c2.234-2.322.566-6.566-2.6-6.886" transform="translate(-76.936 -226.664)" fill="#fff"/>
        <path id="Path_224" data-name="Path 224" d="M327.124,285.074a4.171,4.171,0,1,0,.789,7.441c2.889-1.633,2.363-6.439-.789-7.441" transform="translate(-297.959 -226.418)" fill="#fff"/>
        <path id="Path_225" data-name="Path 225" d="M382.513,322.818a2.907,2.907,0,0,0-2.948-4.075,3.6,3.6,0,0,0-2.461,1.507c-.138,1.128-.37,2.474.566,3.343a2.91,2.91,0,0,0,4.843-.776" transform="translate(-366.867 -250.601)" fill="#fff"/>
        <path id="Path_226" data-name="Path 226" d="M107.294,319.621a2.949,2.949,0,0,0-4.374,2.956,2.936,2.936,0,1,0,4.374-2.956" transform="translate(-14.155 -250.949)" fill="#fff"/>
        <path id="Path_227" data-name="Path 227" d="M240.407,334.821a4.149,4.149,0,0,0-5.636,3.959c-.192,3.147,3.883,5.327,6.412,3.437,2.809-1.623,2.34-6.4-.776-7.4" transform="translate(-186.295 -261.872)" fill="#fff"/>
        <path id="Path_228" data-name="Path 228" d="M178.209,349.429a3.538,3.538,0,0,0-4.958,3.308,3.5,3.5,0,0,0,3.906,3.45c1.655-.036,2.733-1.519,3.264-2.929a3.96,3.96,0,0,0-2.212-3.829" transform="translate(-106.021 -272.264)" fill="#fff"/>
        <path id="Path_229" data-name="Path 229" d="M307.5,349.252a3.556,3.556,0,1,0,.419,5.957,3.585,3.585,0,0,0-.419-5.957" transform="translate(-271.927 -272.051)" fill="#fff"/>
        <path id="Path_230" data-name="Path 230" d="M333.715,396.03a2.507,2.507,0,0,0-1.815-3.709c-1.315.268-2.706,1.257-2.43,2.782a2.339,2.339,0,0,0,4.245.927" transform="translate(-304.51 -303.088)" fill="#fff"/>
        <path id="Path_231" data-name="Path 231" d="M159.34,395.3c-.4-1.208-1.373-2.409-2.8-2.095a2.314,2.314,0,0,0-.874,4.235c1.632,1.1,3.525-.406,3.67-2.14" transform="translate(-79.591 -303.683)" fill="#fff"/>
        <path id="Path_232" data-name="Path 232" d="M244.782,400.253a2.9,2.9,0,0,0-4.236-1.707c-1.008.433-1.3,1.56-1.56,2.519.138.5.262,1,.383,1.5a3.3,3.3,0,0,0,2.466,1.454,2.9,2.9,0,0,0,2.947-3.762" transform="translate(-189.417 -307.249)" fill="#fff"/>
      </g>
    </g>
  </g>
</svg>
