<svg id="XMLID_105_" xmlns="http://www.w3.org/2000/svg" width="15.756" height="15.752" viewBox="0 0 15.756 15.752">
  <path id="XMLID_106_" d="M8.481,107.5,6.07,109.909h0a2.557,2.557,0,0,1-3.616-3.616h0l2.411-2.411a.852.852,0,0,0-1.205-1.205l-2.411,2.411h0a4.262,4.262,0,0,0,6.028,6.027h0L9.686,108.7A.852.852,0,0,0,8.481,107.5Z" transform="translate(0 -96.609)" fill="#0080ff"/>
  <path id="XMLID_107_" d="M112.36,4.3a4.262,4.262,0,0,0-7.275-3.014h0l-2.411,2.411A.852.852,0,1,0,103.88,4.9l2.411-2.411h0A2.557,2.557,0,0,1,109.907,6.1h0L107.5,8.515A.852.852,0,1,0,108.7,9.72l2.411-2.411h0A4.234,4.234,0,0,0,112.36,4.3Z" transform="translate(-96.604 -0.036)" fill="#0080ff"/>
  <path id="XMLID_108_" d="M81.463,87.49a.852.852,0,0,0,1.205,0l4.822-4.822a.852.852,0,1,0-1.205-1.205l-4.822,4.822A.852.852,0,0,0,81.463,87.49Z" transform="translate(-76.599 -76.6)" fill="#0080ff"/>
</svg>
